<?xml version="1.0" standalone="no"?>
<!DOCTYPE svg PUBLIC "-//W3C//DTD SVG 1.1//EN" "http://www.w3.org/Graphics/SVG/1.1/DTD/svg11.dtd" >
<svg xmlns="http://www.w3.org/2000/svg" xmlns:xlink="http://www.w3.org/1999/xlink" version="1.1">
<metadata>
Created by FontForge 20170924 at Fri Jan  1 00:00:00 1904
 By www-data
Copyright (C) 1990-1992 ParaGraph JV.
</metadata>
<defs>
<font id="SchoolBookBoldCyrillic" horiz-adv-x="2376" >
  <font-face 
    font-family="SchoolBook"
    font-weight="700"
    font-stretch="normal"
    units-per-em="4096"
    panose-1="2 11 -30 0 0 0 0 0 0 0"
    ascent="3276"
    descent="-820"
    x-height="1868"
    cap-height="2785"
    bbox="-66 -918 5128 3564"
    underline-thickness="56"
    underline-position="-252"
    unicode-range="U+0020-2122"
  />
<missing-glyph horiz-adv-x="3072" 
d="M512 0v2560h2048v-2560h-2048zM2494 66v2428h-1916v-2428h1916z" />
    <glyph glyph-name=".notdef" horiz-adv-x="3072" 
d="M512 0v2560h2048v-2560h-2048zM2494 66v2428h-1916v-2428h1916z" />
    <glyph glyph-name=".null" horiz-adv-x="0" 
 />
    <glyph glyph-name="nonmarkingreturn" horiz-adv-x="0" 
 />
    <glyph glyph-name="space" unicode=" " horiz-adv-x="1438" 
 />
    <glyph glyph-name="exclam" unicode="!" horiz-adv-x="1434" 
d="M791 762h-164q-16 448 -148 971q-89 348 -114 463t-25 229q0 161 115 244.5t254 83.5q133 0 248.5 -79t115.5 -249q0 -186 -90 -516q-52 -189 -91.5 -359.5t-67 -367t-33.5 -420.5zM377 262q0 85 42.5 162.5t118 125.5t171.5 48q142 0 236.5 -102.5t94.5 -233.5
q0 -84 -42 -161t-118.5 -124t-170.5 -47q-145 0 -238.5 103t-93.5 229z" />
    <glyph glyph-name="quotedbl" unicode="&#x22;" horiz-adv-x="2154" 
d="M963 3039l-172 -745h-230l-172 745h574zM1765 3039l-172 -745h-229l-172 745h573z" />
    <glyph glyph-name="numbersign" unicode="#" horiz-adv-x="2761" 
d="M1749 41h-233l122 684h-753l-119 -684h-238l123 684h-626l45 262h626l148 815h-627l45 262h627l123 680h233l-123 -680h754l123 680h233l-123 -680h627l-45 -262h-627l-147 -815h627l-45 -262h-627zM1683 987l148 815h-754l-147 -815h753z" />
    <glyph glyph-name="dollar" unicode="$" horiz-adv-x="2769" 
d="M2347 2785v-905h-147q-89 387 -245.5 595t-434.5 216v-1053q418 -109 661.5 -296.5t243.5 -542.5q0 -233 -110.5 -423t-316 -310t-478.5 -148v-483h-193v483q-287 30 -614 303l-168 -221h-201v950h176q256 -762 807 -848v1061q-443 160 -680 361t-237 561
q0 192 108.5 367t317 288.5t491.5 126.5v225h193v-225q323 -33 544 -254l107 172h176zM1327 1704v995q-249 -15 -399 -161t-150 -375q0 -314 549 -459zM1520 1110v-1040q156 0 299.5 74t231 191.5t87.5 237.5q0 159 -75.5 254t-190 147.5t-352.5 135.5z" />
    <glyph glyph-name="percent" unicode="%" horiz-adv-x="4313" 
d="M991 1401q-177 0 -325.5 94t-235 261.5t-86.5 377.5q0 204 86.5 372t236.5 264.5t324 96.5q177 0 324 -95.5t233 -264t86 -373.5q0 -193 -80 -362t-226.5 -270t-336.5 -101zM991 1520q153 8 214 189t61 425q0 582 -275 614q-278 -26 -278 -614q0 -229 58.5 -420
t219.5 -194zM2859 -78q-285 0 -464 217t-179 516q0 205 86 374t233 264.5t324 95.5t325.5 -96t235 -265.5t86.5 -372.5q0 -210 -86.5 -377.5t-235 -261.5t-325.5 -94zM2859 41q162 5 220.5 196t58.5 418q0 588 -279 615q-274 -30 -274 -615q0 -231 57.5 -418.5t216.5 -195.5
zM2720 2990l184 -111l-1753 -3059l-197 110z" />
    <glyph glyph-name="ampersand" unicode="&#x26;" horiz-adv-x="3281" 
d="M2171 1409v94h811v-98q-161 -22 -231 -92.5t-142 -218.5q-55 -116 -147 -254q-129 -199 -258 -316q82 -102 196.5 -176t208.5 -74q86 0 193.5 64.5t138.5 153.5q14 41 23 68t18 34.5t29 7.5l73 -41q-296 -643 -639 -643q-306 0 -569 315q-320 -315 -782 -315
q-292 0 -500 112.5t-315 303.5t-107 420q0 341 226.5 543.5t605.5 336.5q-78 231 -78 365q0 195 85 397t267 336.5t451 134.5q159 0 282.5 -66.5t190.5 -179t67 -241.5q0 -259 -231 -422t-625 -279q315 -642 705 -1069q120 102 236 287t116 320q0 192 -270 192h-29z
M1384 1769q221 47 363 154t203 231.5t61 233.5q0 131 -83.5 243.5t-252.5 112.5q-160 0 -293 -118.5t-133 -344.5q0 -199 135 -512zM1036 1532q-202 -73 -312 -239t-110 -363q0 -205 83.5 -382.5t248 -284.5t389.5 -107q183 0 459 155q-511 549 -758 1221z" />
    <glyph glyph-name="quotesingle" unicode="'" horiz-adv-x="852" 
d="M713 3039l-172 -745h-230l-172 745h574z" />
    <glyph glyph-name="parenleft" unicode="(" horiz-adv-x="1438" 
d="M1262 -602v-176q-195 103 -380.5 243.5t-363.5 361t-290.5 526.5t-112.5 687q0 337 92 625.5t251.5 515.5t366 398t437.5 288v-180q-150 -112 -269.5 -298t-195.5 -519t-76 -826q0 -379 45 -664t121 -472t168.5 -304t206.5 -206z" />
    <glyph glyph-name="parenright" unicode=")" horiz-adv-x="1438" 
d="M176 -778v176q129 103 226 239.5t167 330t107 459.5t37 617q0 386 -45.5 666t-121 467.5t-169.5 308.5t-201 201v180q264 -136 478.5 -326.5t364.5 -425.5t227 -504.5t77 -570.5q0 -450 -163 -806t-419.5 -603t-564.5 -409z" />
    <glyph glyph-name="asterisk" unicode="*" horiz-adv-x="2163" 
d="M1085 1704q-28 0 -39.5 -12.5t-37.5 -49.5l-41 -57q-45 -64 -45 -119q1 -18 10.5 -78.5t9.5 -101.5q0 -122 -83 -190t-191 -68q-127 0 -203 94.5t-76 196.5q0 100 72 174.5t207 91.5q101 14 120.5 27t55.5 63l65 94q2 5 11.5 21t9.5 25q0 31 -85.5 62.5t-135.5 31.5
q-55 0 -127 -45q-105 -54 -181 -54q-85 0 -145 49.5t-88.5 116.5t-28.5 117q0 52 30.5 117.5t94.5 113.5t158 48q172 0 270 -218q38 -87 120.5 -121t141.5 -34q58 0 58 102q0 111 -12 143.5t-62 82.5q-139 139 -139 249q0 92 77.5 179.5t208.5 87.5q130 0 206.5 -85
t76.5 -182q0 -114 -135 -249q-47 -45 -60.5 -68t-13.5 -88v-25v-45q0 -102 49 -102q193 0 267 155q103 218 278 218q107 0 188.5 -89.5t81.5 -234.5q0 -100 -79 -169t-175 -69q-79 0 -192 58q-59 41 -102 41q-61 0 -147.5 -28t-86.5 -62q0 -67 65 -141t169 -89
q303 -39 303 -270q0 -119 -76.5 -203t-161.5 -84q-128 0 -221.5 57.5t-93.5 196.5q0 37 8 118t8 107q0 41 -57.5 117t-98.5 76z" />
    <glyph glyph-name="plus" unicode="+" horiz-adv-x="2859" 
d="M1274 2523h311v-1073h1073v-307h-1073v-1073h-311v1073h-1073v307h1073v1073z" />
    <glyph glyph-name="comma" unicode="," horiz-adv-x="1196" 
d="M389 -643l-102 111q18 17 40.5 40.5t57.5 53.5q250 234 250 344q0 90 -119 90q-126 0 -206.5 86t-80.5 233q0 159 108.5 243.5t240.5 84.5q91 0 181 -45.5t149 -144t59 -252.5q0 -388 -578 -844z" />
    <glyph glyph-name="hyphen" unicode="-" horiz-adv-x="1438" 
d="M242 799v418h954v-418h-954z" />
    <glyph glyph-name="period" unicode="." horiz-adv-x="1171" 
d="M254 262q0 85 42.5 162.5t118 125.5t171.5 48q142 0 237 -102.5t95 -233.5q0 -130 -94 -231t-238 -101q-145 0 -238.5 103t-93.5 229z" />
    <glyph glyph-name="slash" unicode="/" horiz-adv-x="2019" 
d="M373 -803l-221 94l1531 3494l222 -94z" />
    <glyph glyph-name="zero" unicode="0" 
d="M1196 -82q-248 0 -454 116t-352.5 323t-223 475t-76.5 561q0 481 166.5 815t421 496.5t506.5 162.5q213 0 409.5 -98t354.5 -290.5t248 -467.5t90 -618q0 -298 -76.5 -563t-220 -471t-347.5 -323.5t-446 -117.5zM1188 111q192 0 283 143.5t111.5 329.5t27.5 510
q0 96 2 176t2 114q0 35 -2 115t-2 164q-6 187 -21 373q-17 197 -41.5 317t-109.5 221t-250 101q-261 0 -344 -283q-82 -283 -82 -1008q0 -34 2 -114t2 -176q5 -250 14.5 -390.5t48 -279t126 -226t233.5 -87.5z" />
    <glyph glyph-name="one" unicode="1" horiz-adv-x="2388" 
d="M365 2273v185q55 7 94 10.5t73 5.5q282 26 519.5 123.5t337.5 269.5h151v-2502q0 -97 49.5 -134.5t159.5 -37.5h328v-193h-1704v193h327q110 0 159.5 37t49.5 135v1753q0 100 -38 127.5t-138 27.5h-368z" />
    <glyph glyph-name="two" unicode="2" 
d="M184 0v250q112 187 262 359t435 444q89 85 215 207t224 246.5t157 267t59 299.5q0 185 -63.5 322t-174.5 208.5t-254 71.5q-129 0 -234.5 -47t-164.5 -115.5t-59 -124.5q0 -40 29.5 -61t91 -42t79.5 -32q123 -71 123 -246q0 -147 -102 -231t-250 -84q-135 0 -241.5 96
t-106.5 252q0 204 120.5 396.5t337 311.5t488.5 119q303 0 539 -108t364.5 -291t128.5 -400q0 -466 -569 -802q-118 -70 -285.5 -170.5t-334 -227.5t-322.5 -299v-20h930q162 0 249 78q68 58 87 146t28 239h209v-1012h-1995z" />
    <glyph glyph-name="three" unicode="3" horiz-adv-x="2380" 
d="M729 1372v184q357 8 530 88.5t217 202.5t44 324q0 172 -82.5 348t-368.5 176q-133 0 -218 -33.5t-122 -80t-37 -87.5q0 -17 12.5 -28.5t52.5 -39.5t66 -53.5t45 -62.5q25 -57 25 -192q0 -92 -93 -157t-206 -65q-150 0 -241 101t-91 244q0 106 59.5 217t178.5 204.5
t296.5 149t403.5 55.5q281 0 491 -106.5t318.5 -270.5t108.5 -331q0 -153 -88 -291t-241.5 -234.5t-338.5 -130.5v-20q269 -33 447 -147t261 -271t83 -324q0 -157 -77 -304t-224 -264t-358 -186t-464 -69q-259 0 -485.5 102t-360 271.5t-133.5 363.5q0 179 115.5 286.5
t277.5 107.5q146 0 235 -94t89 -222q0 -65 -29 -135q-29 -67 -60.5 -94.5t-111.5 -81.5q-65 -43 -65 -70q0 -76 127.5 -158.5t335.5 -82.5q301 0 418.5 187.5t117.5 459.5q0 265 -103 400t-257 174.5t-365 39.5h-135z" />
    <glyph glyph-name="four" unicode="4" horiz-adv-x="2372" 
d="M2269 856v-246h-414v-254q0 -106 60.5 -134.5t152.5 -28.5h201v-193h-1458v193h201q92 0 152.5 29t60.5 134v254h-1135v246l1561 2011h204v-2011h414zM1225 1978l-881 -1122h881v1122z" />
    <glyph glyph-name="five" unicode="5" 
d="M655 2277l-77 -565h12q278 193 631 193q281 0 475 -102.5t300 -262t150.5 -341.5t44.5 -359q0 -246 -143 -458.5t-388 -338t-530 -125.5q-185 0 -383.5 55.5t-340.5 186.5q-222 203 -222 458q0 178 108 282t249 104q186 0 263 -108t77 -237q0 -46 -37 -114
q-35 -70 -119 -131q-86 -61 -86 -99q0 -54 97 -121t268 -67q132 0 253 68.5t200 233.5t79 431q0 318 -82.5 494t-199 236.5t-246.5 60.5q-148 0 -282.5 -74t-176.5 -188q-5 -9 -19.5 -34.5t-39 -45t-60.5 -19.5q-119 0 -119 119q0 32 29 90q25 52 37 123l164 1196h151
q89 -90 248 -133t334 -43q331 0 541 237h229q-85 -263 -239.5 -401t-345.5 -183.5t-439 -45.5q-150 0 -365 28z" />
    <glyph glyph-name="six" unicode="6" horiz-adv-x="2372" 
d="M791 1475h12q102 132 259.5 205t338.5 73q264 0 455 -127.5t290 -340t99 -454.5q0 -251 -140.5 -460t-376.5 -331t-507 -122q-173 0 -355.5 59t-348.5 194.5t-276 364.5t-126 554v167q12 407 120.5 714.5t283 505t385.5 294t431 96.5q166 0 342 -66t292 -194t116 -305
q0 -146 -76 -243t-219 -97q-156 0 -233.5 91.5t-77.5 215.5q0 53 37 111q15 29 50.5 68t35.5 59q0 60 -62.5 109.5t-183.5 49.5q-246 0 -371 -182.5t-159.5 -437t-34.5 -571.5zM786 807v-131q19 -284 130.5 -433t279.5 -149q389 0 389 692q0 346 -77.5 542t-311.5 196
q-390 0 -410 -717z" />
    <glyph glyph-name="seven" unicode="7" 
d="M324 1696h-185l135 1155q198 -66 361 -66h1245q94 0 180 49q87 45 107 45q82 0 82 -90q0 -43 -28 -96.5t-165 -292.5q-241 -425 -360 -668t-188.5 -515t-69.5 -603q0 -47 6 -141t6 -141q0 -192 -101.5 -303t-254.5 -111q-136 0 -256.5 79t-120.5 302q0 225 118.5 498.5
t274.5 521.5q114 177 217 319q26 35 50.5 70.5t40.5 58.5t36 52q50 72 55 79t39 56q21 31 36 51.5t26 38.5q21 28 31 42t19 26t19 26q62 86 82 119h-1052q-99 0 -168 -31t-127.5 -154.5t-89.5 -375.5z" />
    <glyph glyph-name="eight" unicode="8" horiz-adv-x="2372" 
d="M1638 1606v-13q331 -142 487 -309t156 -457q0 -185 -78 -349.5t-226.5 -292t-353.5 -197.5t-452 -70q-301 0 -514.5 74t-337 189.5t-176.5 245t-53 245.5q0 491 561 717v12q-234 133 -332 305t-98 342q0 158 68 307t196 265t302.5 181.5t383.5 65.5q262 0 468 -97
t320 -253.5t114 -329.5q0 -115 -44 -225.5t-141 -202.5t-250 -153zM1397 1716q201 159 229 418v111q-15 177 -139 297t-311 120q-208 0 -321.5 -120.5t-113.5 -288.5q0 -136 84 -226t188 -140t384 -171zM877 1274q-169 -162 -236.5 -267.5t-67.5 -261.5q0 -178 74 -320.5
t222 -224t360 -81.5q180 0 303.5 81t184.5 202t61 237q0 182 -215 329.5t-686 305.5z" />
    <glyph glyph-name="nine" unicode="9" 
d="M1577 1311h-12q-242 -279 -594 -279q-228 0 -421.5 112.5t-308 322.5t-114.5 487q0 215 123 427.5t356.5 349t540.5 136.5q364 0 608 -175.5t362.5 -444t131.5 -547.5v-168q-14 -456 -139 -773.5t-313 -502t-386.5 -261.5t-374.5 -77q-181 0 -353 71t-282 200t-110 294
q0 155 82.5 249.5t208.5 94.5q163 0 237 -94t74 -217q0 -44 -41 -110q-16 -28 -49 -67.5t-33 -59.5q0 -58 63 -109t179 -51q233 0 357.5 169t166 428t41.5 595zM1581 1978v131q-16 314 -136 448t-269 134q-390 0 -390 -692q0 -344 77 -538.5t308 -194.5q394 0 410 712z" />
    <glyph glyph-name="colon" unicode=":" horiz-adv-x="1171" 
d="M254 262q0 150 99 243t233 93q142 0 237 -102.5t95 -233.5q0 -96 -48 -171.5t-125 -118t-159 -42.5q-134 0 -233 94t-99 238zM254 1581q0 145 98.5 238.5t233.5 93.5q129 0 230.5 -93.5t101.5 -238.5t-103 -238.5t-229 -93.5q-134 0 -233 93t-99 239z" />
    <glyph glyph-name="semicolon" unicode=";" horiz-adv-x="1245" 
d="M266 1581q0 125 94 228.5t238 103.5q83 0 159.5 -42t124.5 -118t48 -172q0 -144 -103.5 -238t-228.5 -94q-130 0 -231 94t-101 238zM418 -643l-107 111q348 309 348 438q0 61 -29.5 75t-107 19.5t-121.5 28.5q-147 77 -147 286q0 108 84.5 218t263.5 110
q170 0 279.5 -120t109.5 -322q0 -223 -146 -412.5t-427 -431.5z" />
    <glyph glyph-name="less" unicode="&#x3c;" horiz-adv-x="2855" 
d="M147 1294l2454 1045l106 -242l-1896 -786v-29l1896 -786l-106 -246z" />
    <glyph glyph-name="equal" unicode="=" horiz-adv-x="2855" 
d="M176 1737h2458v-307h-2458v307zM180 1049h2499v-308h-2499v308z" />
    <glyph glyph-name="greater" unicode="&#x3e;" horiz-adv-x="2855" 
d="M2707 1294l-2453 -1044l-107 246l1893 782v33l-1893 786l107 242z" />
    <glyph glyph-name="question" unicode="?" horiz-adv-x="2171" 
d="M1290 819h-180q-4 53 -4 148q0 226 46.5 391.5t137.5 353.5q140 314 140 508q0 129 -58 228t-157.5 150.5t-215.5 51.5q-102 0 -169.5 -54t-67.5 -114q0 -34 16.5 -57.5t41.5 -42.5t57 -43q43 -35 70.5 -94t27.5 -115q0 -110 -79 -208.5t-212 -98.5q-84 0 -167 36
t-140.5 119.5t-57.5 216.5q0 168 107 314.5t304.5 235.5t449.5 89q210 0 406.5 -82.5t319 -244.5t122.5 -389q0 -149 -54.5 -260.5t-131.5 -181.5t-200 -156q-166 -117 -261 -245t-95 -357q0 -62 4 -99zM877 262q0 131 94.5 233.5t236.5 102.5q134 0 233 -93.5t99 -242.5
q0 -143 -99.5 -237.5t-232.5 -94.5q-126 0 -228.5 94.5t-102.5 237.5z" />
    <glyph glyph-name="at" unicode="@" horiz-adv-x="4133" 
d="M3215 2249l-299 -1012q-65 -244 -65 -348q0 -303 278 -303q165 0 287.5 90t201 236.5t114.5 307t36 304.5q0 316 -119 599.5t-339 496.5t-532 332.5t-685 119.5q-395 0 -712.5 -135.5t-535.5 -373.5t-331 -546t-113 -649q0 -437 151.5 -767t402 -541.5t542.5 -311.5
t580 -100q540 0 987 340l151 -201q-513 -397 -1138 -397q-532 0 -984.5 247t-715 689.5t-262.5 1000.5q0 408 143 769t407.5 633t630.5 424t797 152q428 0 785 -139.5t612 -388t391.5 -574.5t136.5 -692q0 -293 -95.5 -562.5t-316.5 -445t-567 -175.5q-434 0 -602 348
q-371 -344 -713 -344q-205 0 -387 94.5t-292.5 280.5t-110.5 444q0 230 76.5 454t219 405t339 287.5t422.5 106.5q70 0 181.5 -23t242.5 -105t219 -240l82 213h499zM2298 913l233 848q-16 115 -94 211t-237 96q-216 0 -377 -142t-246.5 -364t-85.5 -444q0 -224 97 -362
t276 -138q263 0 434 295z" />
    <glyph glyph-name="A" unicode="A" horiz-adv-x="3314" 
d="M115 0v193q199 0 300 103.5t167 272.5q22 46 32 70q26 58 41 98l869 2130h250l974 -2277q87 -197 198.5 -297t277.5 -100v-193h-1450v193h204q66 0 113 28t47 82q0 48 -45 152l-127 290h-1077l-78 -208q-33 -93 -33 -152q0 -192 291 -192h119v-193h-1073zM971 938h909
l-463 1077h-4z" />
    <glyph glyph-name="B" unicode="B" horiz-adv-x="2859" 
d="M139 2785h1446q567 0 806 -179.5t239 -446.5q0 -198 -107 -342.5t-278 -223.5t-357 -90v-41q218 -6 413.5 -82.5t319 -239t123.5 -407.5q0 -215 -85 -359.5t-235 -225t-348.5 -114.5t-441.5 -34h-1495v193h193q110 0 159.5 37t49.5 135v2056q0 98 -49.5 135t-159.5 37
h-193v192zM1171 1581h267q281 0 421 123t140 389q0 227 -112 363.5t-408 136.5h-148q-160 0 -160 -176v-836zM1171 1389v-1074q0 -122 119 -122h213q172 0 283.5 39t178.5 167.5t67 378.5q0 190 -40.5 319.5t-171 210.5t-382.5 81h-267z" />
    <glyph glyph-name="C" unicode="C" horiz-adv-x="2687" 
d="M2363 864h222q-51 -214 -170 -426.5t-353 -366t-587 -153.5q-299 0 -547 115.5t-428 324t-276.5 484.5t-96.5 583q0 277 87 535t252.5 463.5t401.5 324.5t521 119q213 0 391.5 -59t386.5 -199l123 176h155l33 -1048h-192q-113 514 -335 719.5t-456 205.5
q-289 0 -472 -282.5t-183 -949.5q0 -381 68.5 -662t225.5 -442.5t410 -161.5q193 0 361 87t288 247t170 366z" />
    <glyph glyph-name="D" unicode="D" horiz-adv-x="3088" 
d="M127 2785h1204q454 0 827 -176.5t588 -505t215 -764.5q0 -472 -203 -770.5t-586 -433.5t-931 -135h-1114v193h192q110 0 159.5 37t49.5 135v2056q0 98 -49.5 135t-159.5 37h-192v192zM1159 2445v-2085q0 -84 41 -124t193 -43q175 0 310.5 31t261.5 148t205 371.5
t79 673.5q0 522 -149.5 781.5t-346 327t-438.5 67.5q-156 0 -156 -148z" />
    <glyph glyph-name="E" unicode="E" horiz-adv-x="2744" 
d="M2548 1806h-189q-8 197 -82 376.5t-229 295t-389 115.5h-307q-90 0 -135.5 -25t-45.5 -123v-856h218q209 0 288.5 118.5t79.5 270.5v78h193v-1130h-193v57q0 410 -401 410h-185v-1053q0 -82 43.5 -114.5t198.5 -32.5h164q272 0 554.5 169t285.5 699h188v-1061h-2466v193
h193q110 0 159.5 37t49.5 135v2056q0 98 -49.5 135t-159.5 37h-193v192h2409v-979z" />
    <glyph glyph-name="F" unicode="F" horiz-adv-x="2740" 
d="M172 2785h2441v-983h-192q-41 261 -130 424.5t-199 240t-228 100.5t-258 26h-193q-91 0 -150 -32.5t-59 -143.5v-836h58q253 0 390.5 66t137.5 315v86h197v-1114h-197v110q0 133 -104.5 239t-264.5 106h-217v-1024q0 -97 49.5 -134.5t159.5 -37.5h193v-193h-1434v193h193
q110 0 159 37t49 135v2056q0 98 -49 135t-159 37h-193v192z" />
    <glyph glyph-name="G" unicode="G" horiz-adv-x="3064" 
d="M2380 2785h160l40 -983h-192q-75 271 -174.5 457.5t-246.5 288.5t-357 102q-223 0 -384.5 -120.5t-253 -400.5t-91.5 -736q0 -353 54 -630t211 -454.5t439 -177.5q206 0 342.5 108.5t136.5 301.5v430q0 157 -49.5 195t-159.5 38h-192v193h1376v-193h-139
q-86 0 -145.5 -31t-59.5 -145v-1028h-147l-189 287q-111 -102 -221 -172q-160 -103 -311.5 -150t-351.5 -47q-395 0 -692.5 201t-454 529t-156.5 695q0 351 112.5 637.5t306.5 484.5t436 300t497 102q371 0 717 -250z" />
    <glyph glyph-name="H" unicode="H" horiz-adv-x="3383" 
d="M1171 1630h1041v791q0 98 -49.5 135t-159.5 37h-135v192h1376v-192h-192q-110 0 -159.5 -37t-49.5 -135v-2056q0 -98 49.5 -135t159.5 -37h192v-193h-1376v193h135q110 0 159.5 37t49.5 135v1077h-1041v-1077q0 -97 49.5 -134.5t159.5 -37.5h136v-193h-1377v193h193
q110 0 159.5 37t49.5 135v2056q0 98 -49.5 135t-159.5 37h-193v192h1377v-192h-136q-110 0 -159.5 -37.5t-49.5 -134.5v-791z" />
    <glyph glyph-name="I" unicode="I" horiz-adv-x="1729" 
d="M147 2785h1434v-192h-192q-110 0 -159.5 -37t-49.5 -135v-2056q0 -98 49.5 -135t159.5 -37h192v-193h-1434v193h193q110 0 159.5 37t49.5 135v2056q0 98 -49.5 135t-159.5 37h-193v192z" />
    <glyph glyph-name="J" unicode="J" horiz-adv-x="2523" 
d="M905 2785h1434v-192h-193q-110 0 -159.5 -37.5t-49.5 -134.5v-1446q0 -1057 -884 -1057q-269 0 -480.5 88t-328.5 247.5t-117 364.5q0 172 101 297t284 125q150 0 234.5 -94t84.5 -221q0 -132 -77 -209q-68 -68 -185 -82q-106 -9 -106 -90q0 -86 135.5 -153.5
t323.5 -67.5q385 0 385 414v1884q0 98 -49.5 135t-159.5 37h-193v192z" />
    <glyph glyph-name="K" unicode="K" horiz-adv-x="3432" 
d="M139 2785h1434v-192h-193q-110 0 -159.5 -37.5t-49.5 -134.5v-1065h25l836 913q86 93 86 180q0 68 -55 106t-142 38h-53v192h1114v-192q-190 -16 -304.5 -58.5t-206.5 -121t-259 -254.5l-336 -357l901 -1347q98 -144 212.5 -203t303.5 -59v-193h-1425v193h143
q107 0 107 98q0 50 -13.5 73.5t-56.5 86.5l-594 905l-283 -299v-692q0 -97 49.5 -134.5t159.5 -37.5h193v-193h-1434v193h193q110 0 159.5 37t49.5 135v2056q0 98 -49.5 135t-159.5 37h-193v192z" />
    <glyph glyph-name="L" unicode="L" horiz-adv-x="2740" 
d="M160 2785h1433v-192h-192q-110 0 -159.5 -37.5t-49.5 -134.5v-2056q0 -172 106 -172h177q118 0 248 17.5t274 85.5t254.5 220t132.5 402h196v-918h-2420v193h192q110 0 159.5 37t49.5 135v2056q0 98 -49.5 135t-159.5 37h-192v192z" />
    <glyph glyph-name="M" unicode="M" horiz-adv-x="3809" 
d="M1298 2785l582 -1794h25l602 1794h1143v-192h-193q-110 0 -159.5 -37.5t-49.5 -134.5v-2056q0 -97 49.5 -134.5t159.5 -37.5h193v-193h-1434v193h192q110 0 159.5 37t49.5 135v2064h-20l-819 -2429h-185l-815 2470h-24v-1938q0 -218 83 -278.5t224 -60.5h90v-193h-987
v193h86q138 0 224.5 61t86.5 278v1889q0 98 -49.5 135t-159.5 37h-192v192h1138z" />
    <glyph glyph-name="N" unicode="N" horiz-adv-x="3408" 
d="M184 2785h946l1450 -1839h25v1385q0 113 -49 187.5t-217 74.5h-135v192h1020v-192h-136q-140 0 -203 -58t-63 -204v-2413h-205l-1790 2298h-24v-1765q0 -161 77 -209.5t189 -48.5h135v-193h-1020v193h135q119 0 193 48t74 210v1970q0 98 -49.5 135t-159.5 37h-193v192z
" />
    <glyph glyph-name="O" unicode="O" horiz-adv-x="2966" 
d="M127 1393q0 245 82 503.5t251 480t427.5 356t595.5 134.5q338 0 597 -134.5t426.5 -354.5t250 -478t82.5 -507q0 -397 -173.5 -737t-484.5 -539t-698 -199q-293 0 -543 115t-433 321t-281.5 474t-98.5 565zM840 1393q0 -524 119 -901t532 -377q260 0 400.5 178t187.5 458
t47 642q0 674 -154 976t-481 302q-245 0 -389 -154.5t-203 -437t-59 -686.5z" />
    <glyph glyph-name="P" unicode="P" horiz-adv-x="2777" 
d="M1171 1176v-811q0 -97 49.5 -134.5t159.5 -37.5h193v-193h-1434v193h193q110 0 159.5 37t49.5 135v2056q0 98 -49.5 135t-159.5 37h-193v192h1360q470 0 733 -136t353 -321t90 -366q0 -319 -231 -552.5t-842 -233.5h-431zM1171 1368h185q257 0 389.5 75t174.5 205t42 339
q0 270 -91 403t-214 167t-281 36h-78q-84 -3 -105.5 -34t-21.5 -101v-1090z" />
    <glyph glyph-name="Q" unicode="Q" horiz-adv-x="2998" 
d="M2626 -86h213q-159 -512 -553 -512q-419 0 -504 569q-153 -37 -279 -37q-338 0 -649.5 165.5t-509 497.5t-197.5 796q0 245 82 503.5t251 480t427.5 356t595.5 134.5q340 0 599 -134.5t426.5 -355t249 -478.5t81.5 -506q0 -130 -36.5 -340t-181 -478.5t-433.5 -451.5
q25 -118 50.5 -203.5t73 -148t117.5 -62.5q133 0 177 205zM1761 172q-18 265 -97 425.5t-263 160.5q-123 0 -219.5 -73t-96.5 -222q0 -148 116 -246t310 -98q129 0 250 53zM2040 598h24q82 367 82 795q0 1278 -639 1278q-193 0 -336.5 -109.5t-227 -393.5t-83.5 -775
q0 -278 23 -443.5t63 -314.5h21q36 125 159.5 232.5t376.5 107.5q179 0 323 -101t214 -276z" />
    <glyph glyph-name="R" unicode="R" horiz-adv-x="3203" 
d="M139 2785h1549q618 0 835 -206t217 -441q0 -137 -66 -282.5t-264 -267.5t-555 -154v-29q334 -27 465 -239.5t174 -583.5q32 -287 181 -287q182 0 192 410h197q-2 -151 -43 -327.5t-171 -318t-368 -141.5q-252 0 -388.5 146t-181 319.5t-69.5 402.5q-35 346 -134 445.5
t-292 99.5h-123h-123v-966q0 -97 49.5 -134.5t159.5 -37.5h193v-193h-1434v193h193q110 0 159.5 37t49.5 135v2056q0 98 -49.5 135t-159.5 37h-193v192zM1171 1524h304q589 0 589 577q0 262 -142.5 377t-430.5 115h-82q-110 0 -157 -13.5t-64 -55.5t-17 -136v-864z" />
    <glyph glyph-name="S" unicode="S" horiz-adv-x="2810" 
d="M2122 2851h196v-955h-229q-52 329 -185 501.5t-277.5 223t-278.5 50.5q-239 0 -392 -117t-153 -318q0 -158 77.5 -251t173.5 -130t244 -73q373 -88 616.5 -183t409.5 -281.5t166 -490.5q0 -225 -100.5 -433.5t-313 -342t-524.5 -133.5q-501 0 -864 275l-172 -193h-197
v1004h230q71 -274 174.5 -450t230 -271t272 -131.5t314.5 -36.5q129 0 250.5 49.5t197.5 146.5t76 234q0 180 -117 291.5t-261.5 164t-382.5 113.5q-278 71 -469 159t-324 269.5t-133 476.5q0 268 132 460t358 290t497 98q370 0 664 -201z" />
    <glyph glyph-name="T" unicode="T" horiz-adv-x="2753" 
d="M90 2785h2572v-1061h-204q-17 273 -101.5 452t-194.5 267.5t-211.5 119t-176.5 30.5h-82v-2228q0 -98 49.5 -135t159.5 -37h192v-193h-1434v193h193q110 0 159.5 37t49.5 135v2228h-78q-129 0 -278 -71.5t-269 -266t-141 -531.5h-205v1061z" />
    <glyph glyph-name="U" unicode="U" horiz-adv-x="3330" 
d="M172 2785h1434v-192h-193q-110 0 -159.5 -37.5t-49.5 -134.5v-1463q0 -403 139.5 -613t503.5 -210q234 0 388 113t225 299t71 411v1463q0 98 -49.5 135t-159.5 37h-192v192h1040v-192h-192q-110 0 -159.5 -37.5t-49.5 -134.5v-1463q0 -271 -93 -505t-328 -384.5
t-632 -150.5q-1143 0 -1143 1040v1463q0 98 -49 135t-159 37h-193v192z" />
    <glyph glyph-name="V" unicode="V" horiz-adv-x="3305" 
d="M1970 786l504 1397q61 173 61 225q0 185 -213 185h-196v192h1089v-192q-209 -13 -316.5 -70t-170.5 -233l-856 -2372h-283l-909 2216q-72 174 -141 270.5t-169 142.5t-255 46v192h1519v-192h-94q-129 0 -191.5 -20t-62.5 -99q0 -57 21 -94z" />
    <glyph glyph-name="W" unicode="W" horiz-adv-x="4563" 
d="M160 2593v192h1315v-192h-50q-159 0 -159 -111q0 -44 16 -94l524 -1491h25l352 905l-188 516q-42 123 -105.5 197.5t-189.5 77.5v192h1241v-192h-164q-60 0 -99.5 -29.5t-39.5 -85.5q0 -42 20 -90l516 -1475h21l508 1344q37 104 37 156q0 110 -69 145t-214 35h-102v192
h1060v-192q-148 0 -242.5 -40t-161 -131t-124.5 -247l-815 -2175h-225l-545 1483h-25l-585 -1483h-217l-795 2171q-54 147 -120 238t-163.5 137.5t-236.5 46.5z" />
    <glyph glyph-name="X" unicode="X" horiz-adv-x="3445" 
d="M127 2593v192h1503v-192h-65q-185 0 -185 -90q0 -63 66 -156l397 -537h12l414 562q41 54 41 106q0 89 -123 107q-16 0 -37 4q-45 4 -86 4h-41v192h1098v-192h-45q-318 0 -516 -213q-14 -17 -33.5 -38t-27.5 -32l-517 -651l852 -1143q255 -323 435 -323h61v-193h-1565v193
h181q196 0 196 110q0 73 -86 189l-508 712h-20l-529 -704q-24 -30 -45.5 -57.5t-35 -52.5t-13.5 -54q0 -143 152 -143h213v-193h-1143v193q226 0 340 73t201 176l745 930l-766 967q-108 139 -197 196.5t-266 57.5h-57z" />
    <glyph glyph-name="Y" unicode="Y" horiz-adv-x="2937" 
d="M1769 1516l492 753q57 88 57 152q0 172 -196 172h-78v192h893v-192q-235 0 -397 -250l-672 -1028v-950q0 -98 49.5 -135t159.5 -37h192v-193h-1433v193h192q110 0 159.5 37t49.5 135v847l-782 1123q-95 137 -192 194.5t-263 63.5v192h1438v-192h-152q-50 0 -96.5 -31
t-46.5 -92q0 -56 37 -107l569 -847h20z" />
    <glyph glyph-name="Z" unicode="Z" horiz-adv-x="2753" 
d="M373 2785h2117v-192l-1482 -2400h258q298 0 516 85.5t351 283t161 523.5h196v-1085h-2236v106l1536 2487h-225q-372 0 -592.5 -138t-307.5 -328t-100 -386h-192v1044z" />
    <glyph glyph-name="bracketleft" unicode="[" horiz-adv-x="1434" 
d="M1282 2785v-184h-561v-3166h561v-168h-1167v3518h1167z" />
    <glyph glyph-name="backslash" unicode="\" horiz-adv-x="2019" 
d="M1647 -803l-1532 3494l217 94l1536 -3494z" />
    <glyph glyph-name="bracketright" unicode="]" horiz-adv-x="1438" 
d="M152 2785h1171v-3518h-1171v168h561v3166h-561v184z" />
    <glyph glyph-name="asciicircum" unicode="^" horiz-adv-x="1655" 
d="M827 2499l-413 -414h-344l757 758l758 -758h-344z" />
    <glyph glyph-name="underscore" unicode="_" 
d="M0 -459h2376v-344h-2376v344z" />
    <glyph glyph-name="grave" unicode="`" horiz-adv-x="1196" 
d="M139 2867h631q51 -182 168 -389q119 -206 119 -246q0 -26 -17 -45.5t-32 -23.5h-29q-94 8 -303.5 168.5t-327.5 273.5q-38 36 -48.5 46t-26.5 25.5t-27 26.5q-67 52 -107 103v61z" />
    <glyph glyph-name="a" unicode="a" horiz-adv-x="2310" 
d="M2126 389l98 -70q-225 -389 -520 -389q-239 0 -352 238q-198 -127 -337 -182.5t-327 -55.5q-190 0 -313 70.5t-179.5 171.5t-56.5 193q0 158 104.5 322.5t367 292t692.5 159.5v307q0 103 -62 211t-262 108q-70 0 -156 -31.5t-86 -86.5q0 -24 25 -74q37 -66 37 -135
q0 -102 -69 -174t-189 -72q-131 0 -190.5 81.5t-59.5 168.5q0 113 83.5 227.5t265.5 191t454 76.5q761 0 761 -688v-803q0 -101 13.5 -150.5t64.5 -49.5q113 0 193 143zM1303 541v422q-276 -81 -421 -186.5t-145 -297.5q0 -303 209 -303q96 0 179 56.5t130.5 142.5t47.5 166
z" />
    <glyph glyph-name="b" unicode="b" horiz-adv-x="2331" 
d="M25 2855h110q294 0 725 57v-1020l-24 -213h24q199 250 516 250q213 0 365.5 -90.5t243.5 -238.5t132.5 -322.5t41.5 -347.5q0 -169 -45 -341.5t-144 -322.5t-263 -243t-384 -93q-390 0 -655 357l-234 -287h-127v2552q0 114 -172 114h-110v189zM815 930q0 -213 27.5 -375
t109.5 -266.5t236 -104.5q373 0 373 746q0 209 -29 372.5t-111.5 268t-232.5 104.5q-154 0 -236 -105.5t-109.5 -268t-27.5 -371.5z" />
    <glyph glyph-name="c" unicode="c" horiz-adv-x="1987" 
d="M1741 643l155 -57q-221 -656 -786 -656q-296 0 -517 134t-337.5 366.5t-116.5 515.5q0 296 131.5 522t355 347.5t484.5 121.5q205 0 361.5 -75t241.5 -198.5t85 -266.5q0 -113 -72.5 -206t-222.5 -93q-116 0 -195 69t-79 168q0 165 131 250q5 4 27 18t30 27.5t8 32.5
q0 45 -66 84t-179 39q-443 0 -443 -840q0 -799 480 -799q346 0 524 496z" />
    <glyph glyph-name="d" unicode="d" horiz-adv-x="2367" 
d="M1184 2855h114q294 0 725 57v-2601q0 -123 140 -123h147v-188h-840v262q-82 -155 -226.5 -243.5t-313.5 -88.5q-179 0 -322.5 81t-240.5 223.5t-146 323t-49 376.5q0 165 40.5 341t129 325.5t237 243t351.5 93.5q373 0 540 -335h21l-21 176v712q0 118 -41.5 147
t-130.5 29h-114v189zM1106 1671q-336 0 -336 -733q0 -725 336 -725q147 0 260 160.5t113 564.5q0 287 -63.5 451t-148 223t-161.5 59z" />
    <glyph glyph-name="e" unicode="e" horiz-adv-x="2056" 
d="M1761 606l156 -94q-94 -160 -183 -269.5t-188 -179t-213.5 -101.5t-263.5 -32q-304 0 -515.5 146t-313 372t-101.5 457q0 287 125.5 525t340 372.5t468.5 134.5q195 0 351.5 -76.5t267.5 -212.5t168 -312t57 -369v-103h-1180q0 -278 71 -433t170.5 -209t209.5 -54
q187 0 316 110t257 328zM737 1057h525q46 0 55.5 32.5t9.5 143.5q0 183 -48.5 349.5t-205.5 166.5q-110 0 -223 -95t-113 -425v-172z" />
    <glyph glyph-name="f" unicode="f" horiz-adv-x="1647" 
d="M147 1868h283q0 336 117.5 573t309 354t405.5 117q187 0 327 -114.5t140 -303.5q0 -132 -64.5 -227.5t-202.5 -95.5q-153 0 -213.5 87.5t-60.5 178.5q0 74 41 135q17 22 41 44.5t24 49.5q0 74 -102 74q-94 0 -188.5 -84t-94.5 -243q0 -71 27.5 -183.5t34.5 -193.5
q1 -7 3 -51.5t9 -116.5h447v-189h-447v-1327q0 -149 107 -159q15 0 29 -2.5t20 -2.5h131v-188h-1123v188h127q6 0 20.5 2.5t33.5 2.5q102 20 102 159v1327h-283v189z" />
    <glyph glyph-name="g" unicode="g" horiz-adv-x="2363" 
d="M573 754l-4 12q-133 67 -232 189.5t-99 318.5q0 200 103 350.5t296 231.5t457 81q277 0 499 -106q236 291 463 291q128 0 205.5 -80.5t77.5 -177.5q0 -66 -39 -131.5t-141 -65.5q-63 0 -85.5 15.5t-54.5 54.5q-24 32 -32 53q-38 65 -78 65q-42 0 -97 -38.5t-92 -79.5
q226 -185 226 -451q0 -198 -118.5 -345.5t-315.5 -224.5t-418 -77q-190 0 -361 57q-123 -40 -123 -139q0 -193 471 -221l308 -21q675 -45 675 -495q0 -152 -95 -293.5t-321.5 -235.5t-590.5 -94q-349 0 -552.5 71.5t-280.5 172.5t-77 203q0 118 90.5 222t233.5 142v21
q-100 31 -187 121t-87 231q0 232 376 373zM1094 774q336 0 336 516q0 525 -336 525q-340 0 -340 -525q0 -516 340 -516zM1663 -332q0 271 -848 271q-360 0 -360 -263q0 -294 647 -294q208 0 384.5 58t176.5 228z" />
    <glyph glyph-name="h" unicode="h" horiz-adv-x="2507" 
d="M930 1606h24q113 157 282.5 244t352.5 87q215 0 365.5 -126t150.5 -455v-1045q0 -123 140 -123h147v-188h-1040v188h61q139 0 139 123v1127q0 213 -200 213q-93 0 -186 -61.5t-152.5 -150.5t-59.5 -161v-967q0 -123 140 -123h61v-188h-1040v188h147q139 0 139 123v2241
q0 114 -168 114h-114v189h110q294 0 725 57v-1134z" />
    <glyph glyph-name="i" unicode="i" horiz-adv-x="1356" 
d="M119 1868q40 3 117 7.5t124 8.5q230 11 406 33q105 13 188 20v-1626q0 -123 140 -123h147v-188h-1126v188h147q139 0 139 123v1209q0 159 -122 159h-160v189zM954 2548q0 -121 -85 -210t-214 -89q-128 0 -213.5 89.5t-85.5 209.5q0 117 84 206t215 89t215 -88t84 -207z
" />
    <glyph glyph-name="j" unicode="j" horiz-adv-x="1397" 
d="M1077 1937v-1613q0 -1127 -667 -1127q-166 0 -275.5 84.5t-109.5 239.5q0 132 68.5 215.5t176.5 83.5q91 0 150 -58t59 -176v-65q3 -53 17.5 -73.5t60.5 -20.5q58 0 90.5 61t32.5 147q0 140 -82 304q-74 155 -74 294v1287q0 159 -118 159h-168v189q55 4 163 10t172 10
q175 8 308 29q87 11 196 20zM1073 2548q0 -136 -88 -217.5t-211 -81.5q-133 0 -214 88.5t-81 210.5q0 133 88 214t207 81q123 0 211 -81t88 -214z" />
    <glyph glyph-name="k" unicode="k" horiz-adv-x="2507" 
d="M954 922h25l504 491q86 78 86 152q0 50 -37.5 82t-85.5 32h-164v189h1053v-189h-90q-228 0 -484 -241l-225 -217l508 -807q48 -76 134.5 -151t184.5 -75h29v-188h-995v188h41q135 0 135 78q0 45 -29 86l-344 541l-246 -238v-344q0 -123 140 -123h61v-188h-1040v188h147
q139 0 139 123v2241q0 114 -172 114h-110v189h114q302 0 721 57v-1990z" />
    <glyph glyph-name="l" unicode="l" horiz-adv-x="1430" 
d="M156 2855h110q294 0 725 57v-2601q0 -123 139 -123h148v-188h-1126v188h147q139 0 139 123v2241q0 114 -168 114h-114v189z" />
    <glyph glyph-name="m" unicode="m" horiz-adv-x="3633" 
d="M119 1868q106 0 205 12q32 2 69 4t70 4q127 5 242 25q50 5 108.5 11.5t120.5 12.5v-307h20q161 154 305.5 230.5t333.5 76.5q333 0 463 -323q291 323 692 323q282 0 383 -181t101 -396v-1049q0 -123 139 -123h147v-188h-1036v188h58q139 0 139 123v1053q0 128 -41 209.5
t-176 81.5q-107 0 -191 -61.5t-131 -155.5t-47 -189v-938q0 -123 139 -123h58v-188h-951v188h62q139 0 139 123v1053q0 291 -209 291q-77 0 -166 -53.5t-150 -147t-61 -205.5v-938q0 -123 140 -123h61v-188h-1040v188h147q139 0 139 123v1135q0 15 -2 44t-2 46
q-5 63 -25 103t-93 40h-160v189z" />
    <glyph glyph-name="n" unicode="n" horiz-adv-x="2507" 
d="M115 1868q132 7 188 12q152 8 303 25q99 7 111 8q143 15 213 24v-331h24q113 158 283 244.5t356 86.5q512 0 512 -581v-1045q0 -123 140 -123h147v-188h-1040v188h61q139 0 139 123v1127q0 213 -200 213q-91 0 -183.5 -59.5t-153.5 -148t-61 -165.5v-967q0 -123 140 -123
h61v-188h-1040v188h147q139 0 139 123v1209q0 159 -118 159h-168v189z" />
    <glyph glyph-name="o" unicode="o" horiz-adv-x="2220" 
d="M139 934q0 279 132 509.5t355 362t484 131.5q175 0 348.5 -66t314.5 -195t224.5 -318.5t83.5 -423.5q0 -309 -142.5 -538t-366.5 -347.5t-462 -118.5q-195 0 -371.5 75.5t-312.5 213t-211.5 322t-75.5 393.5zM737 934q0 -242 26.5 -417.5t109 -284.5t237.5 -109
q236 0 304.5 231.5t68.5 579.5q0 355 -72 583t-301 228q-154 0 -237 -111t-109.5 -287.5t-26.5 -412.5z" />
    <glyph glyph-name="p" unicode="p" horiz-adv-x="2400" 
d="M115 1868q81 5 125.5 7.5t87.5 4.5q152 4 438 37q40 5 71 8.5t93 11.5v-258h24q166 258 521 258q94 0 216 -32t254 -136.5t224 -318t92 -553.5q0 -236 -60.5 -416.5t-168.5 -303.5t-249.5 -185t-299.5 -62q-162 0 -307 69t-222 189h-24l24 -249v-402q0 -123 140 -123h147
v-188h-1126v188h147q139 0 139 123v2007q0 135 -118 135h-168v189zM1311 1675q-208 0 -288.5 -222.5t-80.5 -526.5q0 -754 369 -754q209 0 280.5 213t71.5 541q0 330 -71 539.5t-281 209.5z" />
    <glyph glyph-name="q" unicode="q" horiz-adv-x="2335" 
d="M1864 1937h164v-2359q0 -92 35 -128t124 -36h123v-188h-1122v188h127q90 0 125 36t35 128v451l20 196h-20q-204 -295 -529 -295q-159 0 -298.5 68t-248 199t-168 314t-59.5 402q0 275 92 508t277.5 374.5t449.5 141.5q208 0 353.5 -82t297.5 -258zM1475 954
q0 775 -357 775q-348 0 -348 -779q0 -770 352 -770q163 0 258 185t95 589z" />
    <glyph glyph-name="r" unicode="r" horiz-adv-x="1896" 
d="M279 1679h-160v189h131q83 0 301.5 25.5t316.5 43.5v-348h25q80 131 224.5 239.5t344.5 108.5q179 0 278 -109.5t99 -283.5q0 -155 -76 -251.5t-215 -96.5q-117 0 -199.5 69t-82.5 193q0 60 24.5 77.5t24.5 102.5q0 25 -25 25h-28q-308 -26 -308 -647v-705
q0 -123 140 -123h147v-188h-1126v188h147q139 0 139 123v1209q0 159 -122 159z" />
    <glyph glyph-name="s" unicode="s" horiz-adv-x="1864" 
d="M1430 1937h192v-622h-209q-35 133 -116.5 235t-197.5 158.5t-251 56.5q-184 0 -276.5 -68t-92.5 -173q0 -92 51 -143t123.5 -72.5t223.5 -51.5q256 -42 426.5 -96.5t295.5 -188t125 -374.5q0 -183 -87.5 -335.5t-257 -242.5t-400.5 -90q-112 0 -269.5 38t-275.5 134
l-102 -172h-193v693h209q189 -521 623 -521q210 0 289 85.5t79 189.5q0 81 -43.5 134.5t-112.5 85.5t-125.5 47t-217.5 52q-229 55 -367.5 108.5t-236 172.5t-97.5 326q0 171 73.5 316t227 231.5t383.5 86.5q285 0 504 -135z" />
    <glyph glyph-name="t" unicode="t" horiz-adv-x="1733" 
d="M991 1868h447v-189h-447v-1106q0 -159 30.5 -245t145.5 -86q121 0 163.5 121t62.5 342h192q-7 -207 -63.5 -379t-193 -284t-361.5 -112q-319 0 -424 183.5t-105 517.5v1048h-299v189q222 8 388.5 194t185.5 666h278v-860z" />
    <glyph glyph-name="u" unicode="u" horiz-adv-x="2552" 
d="M2138 1937v-1585q0 -139 103 -159q17 0 32 -2.5t21 -2.5h131v-188h-819v250h-25q-241 -320 -631 -320q-202 0 -363 124.5t-161 490.5v975q0 159 -119 159h-168v189q72 5 205 12q446 25 635 57v-1421q0 -184 53.5 -249.5t167.5 -65.5q169 0 277 151.5t108 323.5v844
q0 159 -119 159h-168v189q72 5 119 7t90 5q435 25 631 57z" />
    <glyph glyph-name="v" unicode="v" horiz-adv-x="2331" 
d="M1380 659l308 766q32 82 32 136q0 118 -131 118h-127v189h811v-189h-61q-78 0 -165 -59t-142 -195l-570 -1425h-237l-680 1425q-115 254 -299 254h-62v189h1102v-189h-127q-86 0 -86 -73q0 -33 21 -78l393 -869h20z" />
    <glyph glyph-name="w" unicode="w" horiz-adv-x="3142" 
d="M1200 696l254 664l-49 119q-36 91 -82.5 145.5t-134.5 54.5h-33v189h967v-189h-99q-45 0 -67.5 -23.5t-22.5 -49.5q0 -32 21 -74l332 -836h20l291 742q29 68 29 139q0 102 -172 102h-62v189h692v-189q-119 -14 -175 -74t-111 -204l-549 -1401h-221l-439 1090h-20
l-418 -1090h-221l-643 1475q-88 204 -205 204h-25v189h877v-189h-49q-70 0 -70 -77q0 -31 21 -70l340 -836h24z" />
    <glyph glyph-name="x" unicode="x" horiz-adv-x="2408" 
d="M152 1679v189h1048v-189h-94q-74 0 -74 -73q0 -39 41 -103l221 -323h25l209 274q57 75 57 131q0 42 -27.5 68t-66.5 26h-61v189h765v-189h-53q-77 0 -172 -55.5t-151 -124.5l-357 -438l520 -655q148 -190 336 -218v-188h-1114v188h131q70 0 70 66q0 37 -53 115l-271 397
h-24l-316 -385q-6 -6 -32 -49q-25 -25 -25 -62q0 -82 90 -82h139v-188h-774v188q194 0 353 193l409 504l-491 614q-71 85 -121 127t-137 53z" />
    <glyph glyph-name="y" unicode="y" horiz-adv-x="2171" 
d="M57 1868h1016v-189h-98q-43 0 -75 -22.5t-32 -63.5q0 -35 21 -86l397 -884h21l331 823q21 53 21 119t-41 90t-86 24h-119v189h733v-189q-127 -5 -177.5 -61t-100.5 -168l-758 -1831q-51 -126 -102 -210.5t-154 -148t-268 -63.5q-199 0 -306.5 108t-107.5 240
q0 144 46 242t192 98q135 0 194.5 -77.5t59.5 -172.5q0 -42 -25 -94q-33 -64 -33 -86q0 -57 82 -57q70 0 112 62.5t81 158.5l163 389l-741 1499q-81 172 -221 172h-25v189z" />
    <glyph glyph-name="z" unicode="z" horiz-adv-x="2019" 
d="M209 1200v668h1614v-230l-975 -1450h225q290 0 425 148t153 463h172v-799h-1626v188l999 1491h-336q-86 0 -195 -35t-196.5 -142t-87.5 -302h-172z" />
    <glyph glyph-name="braceleft" unicode="{" horiz-adv-x="2273" 
d="M483 975v287q152 12 268.5 142t116.5 443q0 78 -8 234t-8 229q0 729 790 729v-229q-303 -75 -303 -410q0 -118 13 -225q12 -129 12 -254q0 -287 -112.5 -474t-387.5 -312v-33q186 -85 295.5 -197t157 -257.5t47.5 -332.5q0 -108 -12.5 -264t-12.5 -215q0 -160 78.5 -276
t224.5 -133v-230q-790 0 -790 729q0 74 8 230q8 154 8 233q0 313 -116.5 443.5t-268.5 142.5z" />
    <glyph glyph-name="bar" unicode="|" horiz-adv-x="770" 
d="M229 3396h312v-4314h-312v4314z" />
    <glyph glyph-name="braceright" unicode="}" horiz-adv-x="2273" 
d="M1642 1262v-287q-152 -12 -268.5 -143.5t-116.5 -442.5q0 -60 9 -233q8 -156 8 -230q0 -729 -791 -729v230q165 42 234 144t69 265q0 115 -12 225q-12 129 -12 254q0 187 47.5 332.5t157 257.5t295.5 197v33q-274 125 -387 312t-113 474q0 96 12 258t12 221
q0 162 -78.5 277.5t-224.5 132.5v229q791 0 791 -729q0 -73 -8 -229q-9 -176 -9 -234q0 -311 116.5 -442t268.5 -143z" />
    <glyph glyph-name="asciitilde" unicode="~" horiz-adv-x="2236" 
d="M381 1069h-180q59 202 230 338.5t372 136.5q110 0 189.5 -24t219.5 -78q279 -107 414 -107q140 0 225 185h185q-115 -253 -237.5 -372.5t-303.5 -119.5q-173 0 -401 90q-178 68 -279.5 97.5t-187.5 29.5q-129 0 -246 -176z" />
    <glyph glyph-name="afii10051" horiz-adv-x="3613" 
d="M1749 1503q229 55 404.5 70.5t414.5 15.5q122 0 274 -25.5t298 -96t246 -208.5t100 -350q0 -279 -103.5 -505t-307 -356t-486.5 -130q-378 0 -515 124.5t-137 256.5q0 112 71 213.5t220 101.5q155 0 227 -62.5t72 -133.5q0 -46 -12 -82t-43 -71.5t-31 -51.5
q0 -86 152 -86q51 0 102 67.5t85 209.5t34 350q0 230 -71 358.5t-167.5 171.5t-195.5 43q-177 0 -365 -24q-164 -24 -266 -54v-1249h-1032v193h192q110 0 159.5 37t49.5 135v2228h-78q-129 0 -278 -71.5t-269 -266t-141 -531.5h-205v1061h2573v-1061h-205
q-17 276 -100.5 453t-194.5 266t-212.5 119.5t-176.5 30.5h-82v-1090z" />
    <glyph glyph-name="afii10052" horiz-adv-x="2531" 
d="M139 2785h2278v-946h-205q-26 199 -70 301t-102 191q-182 286 -586 286h-119q-164 0 -164 -139v-2113q0 -97 49.5 -134.5t159.5 -37.5h193v-193h-1434v193h193q110 0 159.5 37t49.5 135v2056q0 98 -49.5 135t-159.5 37h-193v192z" />
    <glyph glyph-name="quotesinglbase" unicode="&#x201a;" horiz-adv-x="1196" 
d="M389 -643l-102 111q18 17 40.5 40.5t57.5 53.5q250 234 250 344q0 90 -119 90q-126 0 -206.5 86t-80.5 233q0 159 108.5 243.5t240.5 84.5q91 0 181 -45.5t149 -144t59 -252.5q0 -388 -578 -844z" />
    <glyph glyph-name="afii10100" unicode="&#x192;" horiz-adv-x="1905" 
d="M115 1868h1700v-754h-148q-14 59 -20 103q-43 218 -147 307.5t-230 130.5q-80 24 -148 24h-53q-75 -3 -95 -43.5t-20 -107.5v-1217q0 -123 140 -123h147v-188h-1126v188h147q139 0 139 123v1245q0 123 -139 123h-147v189z" />
    <glyph glyph-name="quotedblbase" unicode="&#x201e;" horiz-adv-x="2224" 
d="M418 -643l-103 111q37 36 91 86q22 23 90.5 95t118 141t49.5 116q0 90 -119 90q-126 0 -206.5 86t-80.5 233q0 159 108.5 243.5t239.5 84.5q156 0 272.5 -115.5t116.5 -326.5q0 -155 -76 -300t-198 -272.5t-303 -271.5zM1393 -643l-103 111q41 39 90 86
q139 136 196.5 205.5t57.5 146.5q0 90 -118 90q-121 0 -202 87t-81 232q0 161 107.5 244.5t236.5 83.5q171 0 280 -118.5t109 -323.5q0 -234 -160 -439t-413 -405z" />
    <glyph glyph-name="ellipsis" unicode="&#x2026;" horiz-adv-x="3006" 
d="M254 262q0 85 42.5 162.5t118 125.5t171.5 48q142 0 237 -102.5t95 -233.5q0 -130 -94 -231t-238 -101q-145 0 -238.5 103t-93.5 229zM1171 262q0 150 99 243t233 93q143 0 237.5 -102.5t94.5 -233.5q0 -96 -48 -172t-124.5 -118t-159.5 -42q-134 0 -233 94t-99 238z
M2089 262q0 85 42.5 162.5t118 125.5t171.5 48q142 0 237 -102.5t95 -233.5q0 -130 -94 -231t-238 -101q-145 0 -238.5 103t-93.5 229z" />
    <glyph glyph-name="dagger" unicode="&#x2020;" horiz-adv-x="1835" 
d="M987 -745h-143q-22 440 -45.5 702.5t-86.5 553.5t-180 570q83 102 187 280.5t104 260.5q0 12 -10 24.5t-22 12.5q-44 0 -85.5 -26.5t-109 -82.5t-125 -86t-123.5 -30q-80 0 -156.5 74t-76.5 257q0 312 237 312q143 0 299 -123q115 -90 152 -90q45 0 45 73q0 65 -160 283
q-98 146 -98 250q0 111 86 197t242 86q157 0 240 -84.5t83 -198.5q0 -102 -102 -258q-156 -213 -156 -275q0 -73 45 -73q40 0 156 90q158 123 299 123q237 0 237 -312q0 -167 -72.5 -249t-160.5 -82q-87 0 -126 27.5t-78 83t-89.5 85t-153.5 29.5q-12 0 -22 -12.5t-10 -24.5
q0 -79 103.5 -260.5t186.5 -280.5q-117 -279 -180 -569.5t-86 -553.5t-45 -703z" />
    <glyph glyph-name="perthousand" unicode="&#x2030;" horiz-adv-x="5472" 
d="M991 1401q-177 0 -325.5 94t-235 261.5t-86.5 377.5q0 204 86.5 372t236.5 264.5t324 96.5q177 0 324 -95.5t233 -264t86 -373.5q0 -193 -80 -362t-226.5 -270t-336.5 -101zM991 1520q153 8 214 189t61 425q0 582 -275 614q-278 -26 -278 -614q0 -229 58.5 -420
t219.5 -194zM2720 2990l184 -111l-1753 -3059l-197 110zM2859 -78q-285 0 -464 217t-179 516q0 205 86 374t233 264.5t324 95.5t325.5 -96t235 -265.5t86.5 -372.5q0 -210 -86.5 -377.5t-235 -261.5t-325.5 -94zM2859 41q162 5 220.5 196t58.5 418q0 588 -279 615
q-274 -30 -274 -615q0 -231 57.5 -418.5t216.5 -195.5zM4481 -78q-285 0 -464 217t-179 516q0 205 86 374t233 264.5t324 95.5t325.5 -96t235 -265.5t86.5 -372.5q0 -210 -86.5 -377.5t-235 -261.5t-325.5 -94zM4481 41q162 5 220.5 196t58.5 418q0 588 -279 615
q-274 -30 -274 -615q0 -231 57.5 -418.5t216.5 -195.5z" />
    <glyph glyph-name="afii10058" unicode="&#x160;" horiz-adv-x="4452" 
d="M737 2593v192h2462v-192h-193q-109 0 -158.5 -37t-49.5 -135v-832h131q607 0 1001.5 -159.5t394.5 -643.5q0 -196 -104 -373.5t-372 -295t-724 -117.5h-1360v193h193q110 0 159.5 37t49.5 135v2076q0 135 -123 135h-209q-143 0 -217.5 -56.5t-101.5 -155.5t-30.5 -251.5
t-6.5 -306.5q-14 -523 -60 -892t-222.5 -658t-532.5 -289q-187 0 -308.5 79t-175 191.5t-53.5 217.5q0 116 50 222t144 171t220 65q159 0 243 -104.5t84 -263.5q0 -115 -50 -162.5t-146 -99.5q-70 -40 -70 -90q0 -33 90 -33h8h13q139 0 254 119q118 121 186.5 358.5
t94.5 497.5t26 483v532q0 279 -125.5 361t-304.5 82h-107zM2798 1401v-1061q0 -147 127 -147h172q323 0 419.5 200.5t96.5 421.5q0 184 -56 308.5t-235.5 201t-523.5 76.5z" />
    <glyph glyph-name="quilsinglleft" unicode="&#x2039;" horiz-adv-x="1507" 
d="M774 1810h352l-618 -770l643 -786h-356l-656 786z" />
    <glyph glyph-name="afii10059" unicode="&#x152;" horiz-adv-x="4510" 
d="M1171 1630h1041v791q0 98 -49.5 135t-159.5 37h-135v192h1376v-192h-192q-110 0 -159.5 -37t-49.5 -135v-791h131q609 0 1002.5 -159.5t393.5 -643.5q0 -167 -80 -349.5t-348 -330t-772 -147.5h-1302v193h135q110 0 159.5 37t49.5 135v1077h-1041v-1077
q0 -97 49.5 -134.5t159.5 -37.5h136v-193h-1377v193h193q110 0 159.5 37t49.5 135v2056q0 98 -49.5 135t-159.5 37h-193v192h1377v-192h-136q-110 0 -159.5 -37.5t-49.5 -134.5v-791zM2843 1442v-1102q0 -147 127 -147h172q323 0 419.5 215.5t96.5 447.5q0 184 -56 308.5
t-235.5 201t-523.5 76.5z" />
    <glyph glyph-name="afii10061" horiz-adv-x="3162" 
d="M139 2785h1434v-192h-193q-110 0 -159.5 -37.5t-49.5 -134.5v-860h66q206 0 313.5 35.5t183.5 177t121 454.5q92 639 553 639q205 0 334 -125t129 -309q0 -161 -89.5 -260.5t-221.5 -99.5q-113 0 -196 67.5t-83 206.5q0 61 33 115q3 5 20.5 29.5t27.5 45.5t10 39
q0 45 -41 45h-17q-91 -7 -166 -114t-104 -348q-15 -133 -29 -214.5t-55 -180.5t-120.5 -178.5t-209.5 -119.5v-20q303 -22 473 -152.5t233 -281.5t101 -332q35 -165 72.5 -252.5t120.5 -87.5q80 0 136.5 118t59.5 279h197q-25 -348 -132.5 -530t-232 -235.5t-241.5 -53.5
q-186 0 -299 113t-160.5 251.5t-81.5 311.5q-20 113 -54 286t-97.5 280t-196 170t-357.5 63v-1028q0 -97 49.5 -134.5t159.5 -37.5h193v-193h-1434v193h193q110 0 159.5 37t49.5 135v2056q0 98 -49.5 135t-159.5 37h-193v192z" />
    <glyph glyph-name="afii10060" horiz-adv-x="3690" 
d="M86 2785h2572v-1061h-204q-17 273 -101.5 452t-194.5 267t-212 119t-177 31h-81v-1131q340 123 798 123q774 0 774 -639v-581q0 -97 49.5 -134.5t159.5 -37.5h193v-193h-1385v193h144q110 0 159.5 37t49.5 135v540q0 248 -113 314.5t-313 66.5q-311 0 -516 -61v-860
q0 -98 49.5 -135t158.5 -37h144v-193h-1385v193h193q110 0 159.5 37t49.5 135v2228h-78q-129 0 -278 -71.5t-269 -266t-141 -531.5h-205v1061z" />
    <glyph glyph-name="afii10145" horiz-adv-x="3391" 
d="M147 2785h1434v-192h-192q-110 0 -159.5 -37t-49.5 -135v-2056q0 -98 49.5 -135t159.5 -37h659q110 0 159.5 37t49.5 135v2056q0 98 -49.5 135t-159.5 37h-193v192h1434v-192h-192q-110 0 -159.5 -37t-49.5 -135v-2056q0 -110 42 -141t109 -31h250v-193h-729
q-192 0 -340 -44t-265 -220.5t-136 -538.5h-201q-19 362 -136 538.5t-265 220.5t-340 44h-730v193h193q110 0 159.5 37t49.5 135v2056q0 98 -49.5 135t-159.5 37h-193v192z" />
    <glyph glyph-name="afii10099" horiz-adv-x="2449" 
d="M1049 1606h24q80 112 234.5 221.5t408.5 109.5q187 0 311 -105.5t193.5 -398.5t69.5 -827q0 -322 -71.5 -660.5t-244.5 -574t-454 -235.5q-435 0 -435 385q0 119 51.5 207t161.5 88q101 0 132.5 -58t31.5 -102q0 -66 -28 -115q-24 -38 -54 -73q-37 -45 -37 -74
q0 -44 35 -71.5t80 -27.5q102 0 155.5 92t73.5 233.5t33 383.5q25 450 25 856q0 334 -36 508.5t-94.5 228.5t-144.5 54q-94 0 -186 -61.5t-151.5 -150.5t-59.5 -161v-967q0 -123 139 -123h62v-188h-1041v188h148q139 0 139 123v1917h-405v189h405v135q0 114 -168 114h-114
v189h110q294 0 725 57v-495h864v-189h-864v-450z" />
    <glyph glyph-name="quoteleft" unicode="&#x2018;" horiz-adv-x="1196" 
d="M807 2834l102 -110q-29 -30 -90 -90q-123 -120 -190.5 -198.5t-67.5 -154.5q0 -56 32.5 -73t86.5 -17q151 -5 219 -98t68 -217q0 -167 -114.5 -247.5t-234.5 -80.5q-86 0 -175.5 41t-151.5 140.5t-62 261.5q0 386 578 843z" />
    <glyph glyph-name="quoteright" unicode="&#x2019;" horiz-adv-x="1196" 
d="M389 1548l-102 107q66 72 119 119q229 216 229 323q0 90 -119 90q-141 6 -214 95t-73 225q0 158 108.5 242.5t240.5 84.5q91 0 181 -44.5t149 -144.5t59 -253q0 -234 -178.5 -460.5t-399.5 -383.5z" />
    <glyph glyph-name="quotedblleft" unicode="&#x201c;" horiz-adv-x="2085" 
d="M1737 2867l102 -106q-69 -76 -119 -119q-229 -216 -229 -324q0 -90 119 -90q139 -6 212.5 -94t73.5 -225q0 -109 -82.5 -218.5t-265.5 -109.5q-149 0 -269 109.5t-120 332.5q0 163 90.5 323.5t221 292t266.5 228.5zM762 2867l102 -106q-83 -90 -127 -131
q-107 -102 -162 -168.5t-55 -143.5q0 -54 31 -69.5t88 -20.5q140 -9 211.5 -95t71.5 -224q0 -160 -108.5 -244t-235.5 -84q-168 0 -279 120t-111 322q0 198 100 346.5t265 313.5q123 123 209 184z" />
    <glyph glyph-name="quotedblright" unicode="&#x201d;" horiz-adv-x="2224" 
d="M418 1581l-103 111q154 151 251.5 260.5t97.5 181.5q0 90 -119 90q-143 3 -215 92t-72 224q0 158 109.5 242.5t238.5 84.5q140 0 264.5 -102t124.5 -340q0 -388 -577 -844zM1393 1581l-103 111q209 206 276.5 284t67.5 158q0 90 -118 90q-141 6 -212 93t-71 223
q0 106 54 180.5t134 110.5t156 36q154 0 271.5 -105.5t117.5 -336.5q0 -396 -573 -844z" />
    <glyph glyph-name="bullet" unicode="&#x2022;" horiz-adv-x="2859" 
d="M999 1294q0 130 60.5 227t159 150t206.5 53q106 0 208 -54t164.5 -151.5t62.5 -224.5q0 -186 -132.5 -308t-302.5 -122q-173 0 -299.5 120t-126.5 310z" />
    <glyph glyph-name="emdash" unicode="&#x2013;" horiz-adv-x="2859" 
d="M201 1450h2457v-307h-2457v307z" />
    <glyph glyph-name="endash" unicode="&#x2014;" horiz-adv-x="4309" 
d="M205 815v356h3899v-356h-3899z" />
    <glyph glyph-name="trademark" unicode="&#x2122;" horiz-adv-x="4071" 
d="M1577 2785v-598h-131q-4 136 -67.5 239t-147 157.5t-137.5 54.5q-29 0 -29 -37v-1065q0 -94 78 -94h151v-152h-897v152h152q26 0 52 22.5t26 71.5v1065q0 37 -25 37q-99 0 -226 -129t-130 -322h-131v598h1462zM3285 2634l-508 -1344h-115l-495 1344h-21v-1098
q0 -47 26.5 -70.5t51.5 -23.5h152v-152h-619v152h152q26 0 52 22.5t26 71.5v1004q0 49 -25.5 71.5t-52.5 22.5h-152v151h770l316 -843h12l299 843h803v-151h-152q-25 0 -51.5 -23t-26.5 -71v-1004q0 -47 26.5 -70.5t51.5 -23.5h152v-152h-901v152h151q26 0 52 22.5t26 71.5
v1098z" />
    <glyph glyph-name="afii10106" unicode="&#x161;" horiz-adv-x="3265" 
d="M479 1868h1872v-189h-147q-140 0 -140 -123v-471h385q86 0 198 -20.5t229 -78.5t195.5 -168.5t78.5 -280.5q0 -103 -54.5 -224t-228 -217t-491.5 -96h-1151v188h147q139 0 139 123v1135q0 156 -42 199t-166 43q-103 0 -153.5 -32t-75 -132.5t-30.5 -311.5
q-24 -626 -73 -835q-103 -447 -434 -447q-158 0 -258.5 57.5t-144.5 144t-44 175.5q0 143 81 233.5t202 90.5q92 0 166.5 -60t74.5 -174q0 -72 -45 -131q-32 -43 -32 -78q0 -24 53 -24q135 0 192 233q43 175 58.5 466.5t15.5 475.5q0 165 -43 252.5t-195 87.5h-139v189z
M2064 893v-614q0 -91 127 -91h74q100 0 180 66q107 89 107 303q0 137 -52.5 211.5t-116.5 99.5t-110 25h-209z" />
    <glyph glyph-name="quilsinglright" unicode="&#x203a;" horiz-adv-x="1507" 
d="M733 1810l635 -770l-655 -786h-357l643 786l-618 770h352z" />
    <glyph glyph-name="afii10107" unicode="&#x153;" horiz-adv-x="3293" 
d="M115 1868h1065v-189h-86q-140 0 -140 -123v-475h586v475q0 123 -139 123h-90v189h1069v-189h-148q-139 0 -139 -123v-475h385q247 0 404.5 -83t226.5 -208.5t69 -257.5q0 -100 -55 -219.5t-227.5 -216t-491.5 -96.5h-1093v188h90q139 0 139 123v582h-586v-582
q0 -123 140 -123h86v-188h-1065v188h147q139 0 139 123v1245q0 123 -139 123h-147v189zM2093 893v-614q0 -91 127 -91h74q99 0 180 66q55 47 80.5 132.5t25.5 170.5q0 137 -52.5 211.5t-116 99.5t-109.5 25h-209z" />
    <glyph glyph-name="afii10109" horiz-adv-x="2400" 
d="M102 1868h1012v-189h-90q-139 0 -139 -123v-487h225q88 0 152.5 47t93.5 215q47 256 150.5 431t373.5 175q152 0 254 -99.5t102 -264.5q0 -95 -56.5 -185t-188.5 -90q-94 0 -155.5 61.5t-61.5 139.5q0 87 45 143q32 45 32 54q0 53 -57 53q-106 0 -166.5 -134t-87.5 -288
q-26 -130 -66 -205t-118 -102v-29q305 -23 405.5 -170.5t122.5 -328.5q14 -259 139 -259q104 0 140 295h147q-1 -175 -61.5 -312.5t-158.5 -211.5t-210 -74q-251 0 -333.5 182.5t-129.5 485.5q-26 184 -88 241.5t-215 57.5h-229v-586q0 -123 139 -123h90v-188h-1012v188h91
q139 0 139 123v1245q0 123 -139 123h-91v189z" />
    <glyph glyph-name="afii10108" horiz-adv-x="2716" 
d="M1094 1606h24q113 157 282.5 244t352.5 87q215 0 365.5 -126.5t150.5 -454.5v-1045q0 -123 139 -123h148v-188h-1040v188h61q139 0 139 123v1127q0 213 -200 213q-93 0 -186 -61.5t-152.5 -150.5t-59.5 -161v-967q0 -123 139 -123h62v-188h-1040v188h147q139 0 139 123
v1917h-405v189h405v135q0 114 -168 114h-114v189h110q294 0 725 57v-495h864v-189h-864v-450z" />
    <glyph glyph-name="afii10193" unicode="&#x178;" horiz-adv-x="2580" 
d="M160 1868h1036v-189h-57q-140 0 -140 -123v-1245q0 -123 140 -123h336q139 0 139 123v1245q0 123 -139 123h-58v189h1037v-189h-148q-139 0 -139 -123v-1245q0 -123 139 -123h148v-188h-336q-250 0 -391 -39.5t-221.5 -172.5t-100.5 -406h-197q-24 282 -93.5 412
t-202.5 168t-408 38h-344v188h147q139 0 139 123v1245q0 123 -139 123h-147v189z" />
    <glyph glyph-name="afii10062" unicode="&#xa1;" horiz-adv-x="3183" 
d="M1880 1192l508 1024q61 126 61 192q0 185 -303 185h-110v192h1056v-192q-169 -5 -261.5 -102.5t-196.5 -295.5l-996 -1839q-239 -438 -655 -438q-220 0 -370.5 106.5t-224 279t-73.5 364.5q0 108 63.5 186t162 118t196.5 40q140 0 236 -101t96 -260q0 -88 -62.5 -161.5
t-150.5 -100.5q-38 -8 -79.5 -17t-71 -28.5t-29.5 -56.5q0 -54 85 -113t222 -59q160 0 303.5 119t216.5 311l-979 1818q-25 53 -94.5 117t-179.5 88q-4 1 -37 8q-70 17 -98 17v192h1454v-192h-131q-217 0 -217 -131q0 -32 36 -115l598 -1155h25zM1794 2908
q-405 0 -546.5 124t-141.5 257q0 82 75.5 151.5t202.5 69.5q126 0 176 -59.5t50 -136.5q0 -42 -29 -78q-16 -20 -59 -47.5t-43 -46.5q0 -34 93.5 -62t221.5 -28q84 0 202 25t118 65q0 14 -33 41q-30 18 -52 31t-36.5 35.5t-14.5 64.5q0 196 222 196q129 0 205.5 -65
t76.5 -156q0 -75 -48.5 -160.5t-202 -153t-437.5 -67.5z" />
    <glyph glyph-name="afii10110" unicode="&#xa2;" horiz-adv-x="2171" 
d="M57 1868h1016v-189h-98q-43 0 -75 -22.5t-32 -63.5q0 -35 21 -86l397 -884h21l331 823q21 53 21 119t-41 90t-86 24h-119v189h733v-189q-127 -5 -177.5 -61t-100.5 -168l-758 -1831q-51 -126 -102 -210.5t-154 -148t-268 -63.5q-199 0 -306.5 108t-107.5 240
q0 144 46 242t192 98q135 0 194.5 -77.5t59.5 -172.5q0 -10 -9 -57q-9 -27 -29 -66t-20 -57q0 -57 82 -57q70 0 112 62.5t81 158.5l163 389l-741 1499q-81 172 -221 172h-25v189zM1184 2167q-177 0 -324 52t-231 147t-84 214q0 113 64.5 179.5t176.5 66.5q91 0 148 -54.5
t57 -145.5q0 -59 -33 -111q-14 -21 -30 -42t-23.5 -36t-7.5 -29q0 -35 60 -72.5t227 -37.5q282 0 282 110q0 22 -10 39.5t-29 37.5t-26 30q-25 35 -25 111q0 124 103 180q51 20 114 20q100 0 163 -68t63 -178q0 -181 -185 -297t-450 -116z" />
    <glyph glyph-name="afii10057" unicode="&#xa3;" horiz-adv-x="2523" 
d="M905 2785h1434v-192h-193q-110 0 -159.5 -37.5t-49.5 -134.5v-1446q0 -1057 -884 -1057q-269 0 -480.5 88t-328.5 247.5t-117 364.5q0 172 101 297t284 125q150 0 234.5 -94t84.5 -221q0 -132 -77 -209q-68 -68 -185 -82q-106 -9 -106 -90q0 -86 135.5 -153.5
t323.5 -67.5q385 0 385 414v1884q0 98 -49.5 135t-159.5 37h-193v192z" />
    <glyph glyph-name="currency" unicode="&#xa4;" horiz-adv-x="3584" 
d="M287 229l483 484q-229 319 -229 721q0 401 229 720l-483 484l286 287l480 -484q310 246 737 246t737 -246l484 484l286 -287l-483 -484q229 -319 229 -720q0 -402 -229 -721l483 -484l-286 -286l-484 483q-310 -246 -737 -246t-737 246l-480 -483zM864 1434
q0 -205 77 -375.5t209.5 -295t300 -192t339.5 -67.5q227 0 443.5 117.5t351.5 330.5t135 482q0 265 -135.5 479t-351 332t-443.5 118q-174 0 -339.5 -67t-299 -192t-210.5 -296t-77 -374z" />
    <glyph glyph-name="afii10050" unicode="&#xa5;" horiz-adv-x="2531" 
d="M139 2785h1315q266 0 391.5 87t194.5 200q134 209 172 492h205v-971h-1082q-164 0 -164 -139v-2089q0 -97 49.5 -134.5t159.5 -37.5h193v-193h-1434v193h193q110 0 159.5 37t49.5 135v2056q0 98 -49.5 135t-159.5 37h-193v192z" />
    <glyph glyph-name="brokenbar" unicode="&#xa6;" horiz-adv-x="1171" 
d="M254 262q0 150 99 243t233 93q142 0 237 -102.5t95 -233.5q0 -96 -48 -171.5t-125 -118t-159 -42.5q-134 0 -233 94t-99 238zM254 1581q0 145 98.5 238.5t233.5 93.5q129 0 230.5 -93.5t101.5 -238.5t-103 -238.5t-229 -93.5q-134 0 -233 93t-99 239z" />
    <glyph glyph-name="section" unicode="&#xa7;" horiz-adv-x="2154" 
d="M1552 360q70 -125 70 -241q0 -135 -47 -255t-140 -216t-230.5 -150.5t-311.5 -54.5q-183 0 -336 78t-242.5 213.5t-89.5 298.5q0 135 94.5 208.5t200.5 73.5q105 0 179.5 -77.5t74.5 -188.5q0 -71 -57 -135q-21 -25 -76 -55t-75.5 -46t-20.5 -46q0 -51 90 -109.5
t237 -58.5q182 0 273.5 107t91.5 237q0 151 -86.5 247t-253.5 220q-295 212 -454.5 365t-215 268t-55.5 243q0 371 381 647q-82 166 -82 348q0 132 72.5 268.5t220 227t362.5 90.5q170 0 306.5 -71.5t212 -190.5t75.5 -250q0 -90 -66 -165.5t-192 -75.5t-179.5 73.5
t-53.5 167.5q0 80 61 152q11 13 32 31.5t31.5 36.5t10.5 38q0 42 -49.5 78.5t-155.5 36.5q-174 0 -275.5 -92.5t-101.5 -227.5q0 -129 106 -246t378 -327q130 -98 252.5 -191.5t211 -177t142 -175.5t53.5 -189q0 -440 -373 -742zM623 1790q-119 -99 -119 -246
q0 -104 43.5 -180t116.5 -142t274 -231q145 -118 256.5 -215t174 -160t106.5 -120q167 104 167 258q0 71 -45 145t-178 198.5t-362 307.5q-312 247 -434 385z" />
    <glyph glyph-name="afii10023" unicode="&#xa8;" horiz-adv-x="2744" 
d="M2548 1806h-189q-8 197 -82 376.5t-229 295t-389 115.5h-307q-90 0 -135.5 -25t-45.5 -123v-856h218q209 0 288.5 118.5t79.5 270.5v78h193v-1130h-193v57q0 410 -401 410h-185v-1053q0 -82 43.5 -114.5t198.5 -32.5h164q272 0 554.5 169t285.5 699h188v-1061h-2466v193
h193q110 0 159.5 37t49.5 135v2056q0 98 -49.5 135t-159.5 37h-193v192h2409v-979zM545 3224q0 126 87 206t199 80q108 0 197.5 -83t89.5 -203q0 -113 -80.5 -200t-206.5 -87q-112 0 -199 80.5t-87 206.5zM1642 3219q0 124 89 207.5t198 83.5q105 0 196 -86t91 -205
q0 -99 -73.5 -190.5t-213.5 -91.5q-128 0 -207.5 83t-79.5 199z" />
    <glyph glyph-name="copyright" unicode="&#xa9;" horiz-adv-x="3178" 
d="M115 1393q0 366 185.5 707.5t523.5 554t765 212.5q328 0 601.5 -123.5t469.5 -335t300 -476t104 -539.5q0 -323 -124.5 -597.5t-337.5 -471t-478 -301.5t-535 -105q-324 0 -596.5 124t-470.5 339t-302.5 477.5t-104.5 534.5zM324 1393q0 -232 91 -459t261.5 -410
t403 -288t509.5 -105q276 0 511 105.5t403.5 286.5t260 407.5t91.5 462.5q0 233 -91.5 459t-258.5 407.5t-404.5 290t-511.5 108.5q-275 0 -510 -107.5t-404.5 -291.5t-260 -410.5t-90.5 -455.5zM2322 1053q-90 -353 -284 -467.5t-396 -114.5q-276 0 -460.5 138.5
t-271.5 350.5t-87 433q0 223 94.5 427t270.5 328.5t401 124.5q252 0 479 -159l74 110h94v-643h-98q-44 254 -179 411.5t-300 157.5q-156 0 -276.5 -158.5t-120.5 -598.5q0 -775 426 -775q110 0 216.5 55t181.5 155.5t101 224.5h135z" />
    <glyph glyph-name="afii10053" unicode="&#xaa;" horiz-adv-x="2687" 
d="M2363 864h222q-51 -214 -170 -426.5t-353 -366t-587 -153.5q-299 0 -547 115.5t-428 324t-276.5 484.5t-96.5 583q0 277 87 535t252.5 463.5t401.5 324.5t521 119q213 0 391.5 -59t386.5 -199l123 176h155l33 -1048h-192q-113 514 -335 719.5t-456 205.5
q-163 0 -310.5 -105.5t-244 -345t-96.5 -614.5h934v-196h-938q0 -169 17.5 -356.5t85 -393t214.5 -346.5t387 -141q193 0 361 87t288 247t170 366z" />
    <glyph glyph-name="guillemotleft" unicode="&#xab;" horiz-adv-x="2380" 
d="M1245 1860l225 -107l-471 -795l471 -782l-225 -102l-819 884zM1782 1606l184 -86l-237 -562l237 -561l-184 -78l-570 639z" />
    <glyph glyph-name="logicalnot" unicode="&#xac;" horiz-adv-x="2916" 
d="M315 1692h2458v-697h-360v353h-2098v344z" />
    <glyph glyph-name="registered" unicode="&#xae;" horiz-adv-x="3178" 
d="M115 1393q0 323 124.5 598t335.5 470.5t475.5 300.5t538.5 105q427 0 765 -213t524 -554.5t186 -706.5q0 -274 -105 -537.5t-301 -475.5t-470.5 -337t-598.5 -125q-273 0 -537.5 104t-477.5 300t-336 470.5t-123 600.5zM324 1393q0 -368 182.5 -657.5t475 -447
t607.5 -157.5q276 0 511 105.5t403.5 286.5t260 407.5t91.5 462.5q0 275 -108.5 511.5t-290 403.5t-407.5 258.5t-460 91.5t-460 -90t-409 -258.5t-289.5 -404t-106.5 -512.5zM922 2089h782q331 0 431.5 -109t100.5 -223q0 -173 -115.5 -244.5t-326.5 -107.5v-12
q170 -19 233.5 -128t86.5 -290q11 -90 32.5 -117t61.5 -27q32 0 43.5 11t25.5 43q25 54 25 119v32h94v-45q0 -159 -83 -255.5t-204 -96.5q-295 0 -323 438q-8 137 -44.5 206t-152.5 69h-143v-484q0 -39 21.5 -64.5t48.5 -25.5h131v-94h-725v94h139q25 0 47 30.5t22 59.5
v1033q0 40 -23.5 65t-45.5 25h-139v98zM1446 1454h156q294 0 294 291q0 124 -70.5 185t-146.5 61h-155q-78 0 -78 -62v-475z" />
    <glyph glyph-name="afii10056" unicode="&#xaf;" horiz-adv-x="1712" 
d="M139 2785h1434v-192h-193q-110 0 -159.5 -37.5t-49.5 -134.5v-2056q0 -97 49.5 -134.5t159.5 -37.5h193v-193h-1434v193h193q110 0 159.5 37t49.5 135v2056q0 98 -49.5 135t-159.5 37h-193v192zM610 3265q0 -96 -68.5 -173t-176.5 -77q-97 0 -173.5 71t-76.5 179
t77 176.5t173 68.5q95 0 170 -68.5t75 -176.5zM1597 3265q0 -96 -69.5 -173t-179.5 -77q-108 0 -177 76.5t-69 173.5q0 96 69 170.5t177 74.5q110 0 179.5 -75t69.5 -170z" />
    <glyph glyph-name="degree" unicode="&#xb0;" horiz-adv-x="1319" 
d="M229 2437q0 190 130.5 310t299.5 120q106 0 206 -53t162.5 -151t62.5 -226q0 -169 -121 -299.5t-310 -130.5q-128 0 -225.5 62t-151 162t-53.5 206zM434 2437q0 -84 65 -152.5t160 -68.5q98 0 160 67t62 154q0 89 -61 155t-161 66q-96 0 -160.5 -67.5t-64.5 -153.5z" />
    <glyph glyph-name="plusminus" unicode="&#xb1;" horiz-adv-x="2552" 
d="M1442 831h-312v574h-946v311h946v705h312v-705h921v-311h-921v-574zM184 319v312h2179v-312h-2179z" />
    <glyph glyph-name="afii10055" unicode="&#xb2;" horiz-adv-x="1729" 
d="M147 2785h1434v-192h-192q-110 0 -159.5 -37t-49.5 -135v-2056q0 -98 49.5 -135t159.5 -37h192v-193h-1434v193h193q110 0 159.5 37t49.5 135v2056q0 98 -49.5 135t-159.5 37h-193v192z" />
    <glyph glyph-name="afii10103" unicode="&#xb3;" horiz-adv-x="1356" 
d="M119 1868q40 3 117 7.5t124 8.5q230 11 406 33q105 13 188 20v-1626q0 -123 140 -123h147v-188h-1126v188h147q139 0 139 123v1209q0 159 -122 159h-160v189zM954 2548q0 -121 -85 -210t-214 -89q-128 0 -213.5 89.5t-85.5 209.5q0 117 84 206t215 89t215 -88t84 -207z
" />
    <glyph glyph-name="afii10098" unicode="&#xb4;" horiz-adv-x="1901" 
d="M139 1868h1008q79 0 147 24q131 44 233.5 133.5t143.5 305.5q18 90 21 102h147v-754h-745q-115 0 -115 -151v-1217q0 -123 139 -123h148v-188h-1127v188h148q139 0 139 123v1245q0 123 -139 123h-148v189z" />
    <glyph glyph-name="mu" unicode="&#xb5;" horiz-adv-x="2552" 
d="M2138 1937v-1585q0 -139 103 -159q17 0 32 -2.5t21 -2.5h131v-188h-819v250h-25q-123 -163 -301 -241.5t-330 -78.5q-62 0 -124.5 48t-108.5 128h-21l123 -495q29 -118 29 -180q0 -234 -303 -234q-115 0 -190.5 60.5t-75.5 152.5q0 124 25.5 213.5t53 182t48 264
t20.5 475.5v975q0 159 -119 159h-168v189q72 5 205 12q446 25 635 57v-1421q0 -184 53.5 -249.5t167.5 -65.5q169 0 277 151.5t108 323.5v844q0 159 -119 159h-168v189q72 5 119 7t90 5q435 25 631 57z" />
    <glyph glyph-name="paragraph" unicode="&#xb6;" horiz-adv-x="2384" 
d="M831 -803v2409q-208 6 -372.5 106t-254 262.5t-89.5 347.5q0 189 89.5 351.5t253.5 261t373 104.5h517v-3842h-517zM1692 -803v3842h516v-3842h-516z" />
    <glyph glyph-name="periodcentered" unicode="&#xb7;" horiz-adv-x="623" 
d="M0 1438q0 118 89 212.5t222 94.5q132 0 222 -95t90 -212t-90.5 -214.5t-221.5 -97.5q-119 0 -215 88.5t-96 223.5z" />
    <glyph glyph-name="afii10071" unicode="&#xb8;" horiz-adv-x="1982" 
d="M1733 606l155 -94q-93 -158 -184.5 -270t-188.5 -179.5t-212 -100t-263 -32.5q-304 0 -515 146t-312.5 372.5t-101.5 456.5q0 274 120 512t334.5 379t478.5 141q257 0 450 -132t295.5 -355t102.5 -483v-103h-1183q10 -331 108 -513.5t342 -182.5q186 0 323.5 114.5
t250.5 323.5zM709 1057h520q46 0 55.5 32.5t9.5 143.5q0 184 -48.5 352t-205.5 168q-131 0 -231 -121.5t-100 -402.5v-172zM262 2507q0 114 80 202.5t211 88.5t213 -90t82 -201q0 -114 -84 -204.5t-211 -90.5q-114 0 -202.5 84t-88.5 211zM1147 2507q0 130 87 210.5
t204 80.5q131 0 213 -90t82 -201q0 -112 -84.5 -203.5t-210.5 -91.5q-112 0 -201.5 82t-89.5 213z" />
    <glyph glyph-name="afii61352" unicode="&#xb9;" horiz-adv-x="4747" 
d="M3150 0h-287l-1479 2073h-4v-1455q0 -171 -27 -316t-141 -264.5t-344 -119.5q-224 0 -357 78t-185 188t-52 213q0 143 88 250t244 107q124 0 211.5 -80.5t87.5 -206.5q0 -36 -20 -98q-21 -54 -54 -86q-45 -47 -45 -74q0 -82 123 -82q253 0 267 385q3 48 5.5 77.5
t2.5 41.5v1708q0 159 -39 212.5t-178 53.5h-201v180h885l1278 -1777h24v1159q0 166 31 311.5t165 267t406 121.5q134 0 249 -56t183 -155.5t68 -226.5q0 -149 -93.5 -240.5t-230.5 -91.5q-120 0 -203 75t-83 175q0 74 16 123q13 38 37.5 82t24.5 65q0 49 -91 49
q-174 0 -228 -131t-54 -315v-2220zM4432 111h-971v270h971v-270zM3949 696q-234 8 -381.5 159.5t-147.5 393.5q0 256 148.5 410t380.5 160q155 -5 273 -74.5t184.5 -197.5t66.5 -298q0 -243 -144 -394t-380 -159zM3949 836q114 11 158.5 86t54.5 213v122q-4 194 -42.5 308
t-170.5 114q-59 0 -118.5 -48t-82.5 -177q-17 -86 -17 -201q0 -204 43.5 -306.5t174.5 -110.5z" />
    <glyph glyph-name="afii10101" unicode="&#xba;" horiz-adv-x="2011" 
d="M1716 643l156 -57q-129 -382 -335.5 -519t-451.5 -137q-296 0 -516.5 134t-337 366.5t-116.5 515.5q0 297 131 523t353.5 347t485.5 121q186 0 332 -61q114 -48 213 -135l66 127h135v-651h-152q-5 75 -45 163q-43 101 -151.5 225.5t-302.5 139.5q-267 0 -362.5 -212.5
t-100.5 -471.5h581v-193h-585q5 -429 151.5 -575t327.5 -146q348 0 524 496z" />
    <glyph glyph-name="guillemotright" unicode="&#xbb;" horiz-adv-x="2380" 
d="M1147 1860l819 -902l-819 -884l-225 102l471 782l-471 795zM610 1606l570 -648l-570 -639l-184 78l238 561l-238 562z" />
    <glyph glyph-name="afii10105" unicode="&#xbc;" horiz-adv-x="1397" 
d="M1077 1937v-1613q0 -1127 -667 -1127q-166 0 -275.5 84.5t-109.5 239.5q0 132 68.5 215.5t176.5 83.5q91 0 150 -58t59 -176v-65q3 -53 17.5 -73.5t60.5 -20.5q58 0 90.5 61t32.5 147q0 140 -82 304q-74 155 -74 294v1287q0 159 -118 159h-168v189q55 4 163 10t172 10
q175 8 308 29q87 11 196 20zM1073 2548q0 -136 -88 -217.5t-211 -81.5q-133 0 -214 88.5t-81 210.5q0 133 88 214t207 81q123 0 211 -81t88 -214z" />
    <glyph glyph-name="afii10054" unicode="&#xbd;" horiz-adv-x="2810" 
d="M2122 2851h196v-955h-229q-52 329 -185 501.5t-277.5 223t-278.5 50.5q-239 0 -392 -117t-153 -318q0 -158 77.5 -251t173.5 -130t244 -73q373 -88 616.5 -183t409.5 -281.5t166 -490.5q0 -225 -100.5 -433.5t-313 -342t-524.5 -133.5q-501 0 -864 275l-172 -193h-197
v1004h230q71 -274 174.5 -450t230 -271t272 -131.5t314.5 -36.5q129 0 250.5 49.5t197.5 146.5t76 234q0 180 -117 291.5t-261.5 164t-382.5 113.5q-278 71 -469 159t-324 269.5t-133 476.5q0 268 132 460t358 290t497 98q370 0 664 -201z" />
    <glyph glyph-name="afii10102" unicode="&#xbe;" horiz-adv-x="1864" 
d="M1430 1937h192v-622h-209q-35 133 -116.5 235t-197.5 158.5t-251 56.5q-184 0 -276.5 -68t-92.5 -173q0 -92 51 -143t123.5 -72.5t223.5 -51.5q256 -42 426.5 -96.5t295.5 -188t125 -374.5q0 -183 -87.5 -335.5t-257 -242.5t-400.5 -90q-112 0 -269.5 38t-275.5 134
l-102 -172h-193v693h209q189 -521 623 -521q210 0 289 85.5t79 189.5q0 81 -43.5 134.5t-112.5 85.5t-125.5 47t-217.5 52q-229 55 -367.5 108.5t-236 172.5t-97.5 326q0 171 73.5 316t227 231.5t383.5 86.5q285 0 504 -135z" />
    <glyph glyph-name="afii10104" unicode="&#xbf;" horiz-adv-x="1356" 
d="M119 1868q64 4 173 10.5t159 9.5q174 8 307 29q87 11 196 20v-1626q0 -123 140 -123h147v-188h-1126v188h147q139 0 139 123v1209q0 159 -118 159h-164v189zM528 2548q0 -122 -84.5 -210.5t-210.5 -88.5q-128 0 -213.5 89.5t-85.5 209.5q0 115 84.5 205t214.5 90
q126 0 210.5 -88.5t84.5 -206.5zM1421 2548q0 -150 -94.5 -224.5t-204.5 -74.5q-133 0 -214 88.5t-81 210.5q0 133 88 214t207 81q114 0 206.5 -73.5t92.5 -221.5z" />
    <glyph glyph-name="afii10017" unicode="&#xc0;" horiz-adv-x="3314" 
d="M115 0v193q199 0 300 103.5t167 272.5q22 46 32 70q26 58 41 98l869 2130h250l974 -2277q87 -197 198.5 -297t277.5 -100v-193h-1450v193h204q66 0 113 28t47 82q0 48 -45 152l-127 290h-1077l-78 -208q-33 -93 -33 -152q0 -192 291 -192h119v-193h-1073zM971 938h909
l-463 1077h-4z" />
    <glyph glyph-name="afii10017" unicode="&#x410;" horiz-adv-x="3314" 
d="M115 0v193q199 0 300 103.5t167 272.5q22 46 32 70q26 58 41 98l869 2130h250l974 -2277q87 -197 198.5 -297t277.5 -100v-193h-1450v193h204q66 0 113 28t47 82q0 48 -45 152l-127 290h-1077l-78 -208q-33 -93 -33 -152q0 -192 291 -192h119v-193h-1073zM971 938h909
l-463 1077h-4z" />
    <glyph glyph-name="afii10018" unicode="&#xc1;" horiz-adv-x="2847" 
d="M2466 1827h-213q-38 341 -201 540q-172 209 -528 209h-160q-121 0 -157 -36.5t-36 -155.5v-799h156q441 0 741 -60t482 -240.5t182 -522.5q0 -257 -134 -415t-353 -231.5t-473 -94.5t-601 -21h-1032v193h193q110 0 159.5 37t49.5 135v2056q0 98 -49.5 135t-159.5 37h-193
v192h2327v-958zM1171 1372v-1077q0 -102 152 -102h229q170 0 318.5 122.5t148.5 470.5q0 306 -132 446t-445 140h-271z" />
    <glyph glyph-name="afii10018" unicode="&#x411;" horiz-adv-x="2847" 
d="M2466 1827h-213q-38 341 -201 540q-172 209 -528 209h-160q-121 0 -157 -36.5t-36 -155.5v-799h156q441 0 741 -60t482 -240.5t182 -522.5q0 -257 -134 -415t-353 -231.5t-473 -94.5t-601 -21h-1032v193h193q110 0 159.5 37t49.5 135v2056q0 98 -49.5 135t-159.5 37h-193
v192h2327v-958zM1171 1372v-1077q0 -102 152 -102h229q170 0 318.5 122.5t148.5 470.5q0 306 -132 446t-445 140h-271z" />
    <glyph glyph-name="afii10019" unicode="&#xc2;" horiz-adv-x="2859" 
d="M139 2785h1446q567 0 806 -179.5t239 -446.5q0 -198 -107 -342.5t-278 -223.5t-357 -90v-41q218 -6 413.5 -82.5t319 -239t123.5 -407.5q0 -215 -85 -359.5t-235 -225t-348.5 -114.5t-441.5 -34h-1495v193h193q110 0 159.5 37t49.5 135v2056q0 98 -49.5 135t-159.5 37
h-193v192zM1171 1581h267q281 0 421 123t140 389q0 227 -112 363.5t-408 136.5h-148q-160 0 -160 -176v-836zM1171 1389v-1074q0 -122 119 -122h213q172 0 283.5 39t178.5 167.5t67 378.5q0 190 -40.5 319.5t-171 210.5t-382.5 81h-267z" />
    <glyph glyph-name="afii10019" unicode="&#x412;" horiz-adv-x="2859" 
d="M139 2785h1446q567 0 806 -179.5t239 -446.5q0 -198 -107 -342.5t-278 -223.5t-357 -90v-41q218 -6 413.5 -82.5t319 -239t123.5 -407.5q0 -215 -85 -359.5t-235 -225t-348.5 -114.5t-441.5 -34h-1495v193h193q110 0 159.5 37t49.5 135v2056q0 98 -49.5 135t-159.5 37
h-193v192zM1171 1581h267q281 0 421 123t140 389q0 227 -112 363.5t-408 136.5h-148q-160 0 -160 -176v-836zM1171 1389v-1074q0 -122 119 -122h213q172 0 283.5 39t178.5 167.5t67 378.5q0 190 -40.5 319.5t-171 210.5t-382.5 81h-267z" />
    <glyph glyph-name="afii10020" unicode="&#xc3;" horiz-adv-x="2531" 
d="M139 2785h2278v-946h-205q-26 199 -70 301t-102 191q-182 286 -586 286h-119q-164 0 -164 -139v-2113q0 -97 49.5 -134.5t159.5 -37.5h193v-193h-1434v193h193q110 0 159.5 37t49.5 135v2056q0 98 -49.5 135t-159.5 37h-193v192z" />
    <glyph glyph-name="afii10020" unicode="&#x413;" horiz-adv-x="2531" 
d="M139 2785h2278v-946h-205q-26 199 -70 301t-102 191q-182 286 -586 286h-119q-164 0 -164 -139v-2113q0 -97 49.5 -134.5t159.5 -37.5h193v-193h-1434v193h193q110 0 159.5 37t49.5 135v2056q0 98 -49.5 135t-159.5 37h-193v192z" />
    <glyph glyph-name="afii10021" unicode="&#xc4;" horiz-adv-x="3125" 
d="M2998 -803h-225q-14 270 -108 436.5t-229.5 244.5t-284 102t-320.5 24h-148h-507q-227 0 -401 -45t-307 -223.5t-140 -538.5h-226v1000h91q153 0 233.5 33t136.5 128.5t129 309.5q151 443 207 832t64 601v193q-8 133 -62.5 216t-216.5 83h-201v192h2450v-192h-226
q-138 0 -177.5 -45t-39.5 -131v-2024q0 -6 2 -22t2 -35q7 -67 51 -103t109 -36h344v-1000zM1860 348v2069q0 79 -38.5 98.5t-105.5 19.5h-286q-136 0 -181 -86t-61 -245q0 -5 -2 -21t-3.5 -30t-2.5 -31q-5 -31 -17 -156q-17 -173 -26 -256.5t-35.5 -259t-73 -389
t-106.5 -397.5q-19 -57 -28.5 -85t-16.5 -51q-44 -145 -74 -200q-25 -56 -25 -82q0 -49 66 -49h811q205 0 205 151z" />
    <glyph glyph-name="afii10021" unicode="&#x414;" horiz-adv-x="3125" 
d="M2998 -803h-225q-14 270 -108 436.5t-229.5 244.5t-284 102t-320.5 24h-148h-507q-227 0 -401 -45t-307 -223.5t-140 -538.5h-226v1000h91q153 0 233.5 33t136.5 128.5t129 309.5q151 443 207 832t64 601v193q-8 133 -62.5 216t-216.5 83h-201v192h2450v-192h-226
q-138 0 -177.5 -45t-39.5 -131v-2024q0 -6 2 -22t2 -35q7 -67 51 -103t109 -36h344v-1000zM1860 348v2069q0 79 -38.5 98.5t-105.5 19.5h-286q-136 0 -181 -86t-61 -245q0 -5 -2 -21t-3.5 -30t-2.5 -31q-5 -31 -17 -156q-17 -173 -26 -256.5t-35.5 -259t-73 -389
t-106.5 -397.5q-19 -57 -28.5 -85t-16.5 -51q-44 -145 -74 -200q-25 -56 -25 -82q0 -49 66 -49h811q205 0 205 151z" />
    <glyph glyph-name="afii10022" unicode="&#xc5;" horiz-adv-x="2744" 
d="M2548 1806h-189q-8 197 -82 376.5t-229 295t-389 115.5h-307q-90 0 -135.5 -25t-45.5 -123v-856h218q209 0 288.5 118.5t79.5 270.5v78h193v-1130h-193v57q0 410 -401 410h-185v-1053q0 -82 43.5 -114.5t198.5 -32.5h164q272 0 554.5 169t285.5 699h188v-1061h-2466v193
h193q110 0 159.5 37t49.5 135v2056q0 98 -49.5 135t-159.5 37h-193v192h2409v-979z" />
    <glyph glyph-name="afii10022" unicode="&#x415;" horiz-adv-x="2744" 
d="M2548 1806h-189q-8 197 -82 376.5t-229 295t-389 115.5h-307q-90 0 -135.5 -25t-45.5 -123v-856h218q209 0 288.5 118.5t79.5 270.5v78h193v-1130h-193v57q0 410 -401 410h-185v-1053q0 -82 43.5 -114.5t198.5 -32.5h164q272 0 554.5 169t285.5 699h188v-1061h-2466v193
h193q110 0 159.5 37t49.5 135v2056q0 98 -49.5 135t-159.5 37h-193v192h2409v-979z" />
    <glyph glyph-name="afii10024" unicode="&#xc6;" horiz-adv-x="4612" 
d="M1589 2785h1434v-192h-193q-110 0 -159.5 -37.5t-49.5 -134.5v-860h66q206 0 313.5 35.5t183.5 177t121 454.5q92 639 553 639q205 0 334 -125t129 -309q0 -161 -89.5 -260.5t-221.5 -99.5q-111 0 -195 67.5t-84 206.5q0 61 33 115q58 88 58 114q0 36 -37 45h-25
q-136 -15 -194 -167t-72 -295q-15 -133 -29 -214.5t-55 -180.5t-120.5 -178.5t-209.5 -119.5v-20q303 -22 473 -152.5t233 -281.5t101 -332q35 -165 72.5 -252.5t120.5 -87.5q80 0 136.5 118t59.5 279h197q-25 -348 -132.5 -530t-232 -235.5t-241.5 -53.5q-186 0 -299 113
t-160.5 251.5t-81.5 311.5q-20 113 -54 286t-97.5 280t-196 170t-357.5 63v-1028q0 -97 49.5 -134.5t159.5 -37.5h193v-193h-1434v193h193q110 0 159.5 37t49.5 135v1028q-260 0 -395 -78.5t-188 -212t-101 -393.5q-45 -238 -88 -386.5t-159 -276.5t-315 -128
q-202 0 -386.5 161t-219.5 658h197q3 -157 59.5 -277t136.5 -120q85 0 123.5 92.5t69.5 247.5q38 181 101 332t233 281.5t473 152.5v20q-237 73 -309 246.5t-105 446.5q-14 143 -72 295t-194 167h-25q-36 -9 -36 -45q0 -22 9.5 -40t27 -43.5t20.5 -30.5q33 -54 33 -115
q0 -139 -84 -206.5t-195 -67.5q-132 0 -221.5 99.5t-89.5 260.5q0 119 58 218.5t164 157.5t241 58q461 0 553 -639q36 -241 87 -375.5t123.5 -197t161.5 -78.5t246 -16h66v860q0 98 -49.5 135t-159.5 37h-193v192z" />
    <glyph glyph-name="afii10024" unicode="&#x416;" horiz-adv-x="4612" 
d="M1589 2785h1434v-192h-193q-110 0 -159.5 -37.5t-49.5 -134.5v-860h66q206 0 313.5 35.5t183.5 177t121 454.5q92 639 553 639q205 0 334 -125t129 -309q0 -161 -89.5 -260.5t-221.5 -99.5q-111 0 -195 67.5t-84 206.5q0 61 33 115q58 88 58 114q0 36 -37 45h-25
q-136 -15 -194 -167t-72 -295q-15 -133 -29 -214.5t-55 -180.5t-120.5 -178.5t-209.5 -119.5v-20q303 -22 473 -152.5t233 -281.5t101 -332q35 -165 72.5 -252.5t120.5 -87.5q80 0 136.5 118t59.5 279h197q-25 -348 -132.5 -530t-232 -235.5t-241.5 -53.5q-186 0 -299 113
t-160.5 251.5t-81.5 311.5q-20 113 -54 286t-97.5 280t-196 170t-357.5 63v-1028q0 -97 49.5 -134.5t159.5 -37.5h193v-193h-1434v193h193q110 0 159.5 37t49.5 135v1028q-260 0 -395 -78.5t-188 -212t-101 -393.5q-45 -238 -88 -386.5t-159 -276.5t-315 -128
q-202 0 -386.5 161t-219.5 658h197q3 -157 59.5 -277t136.5 -120q85 0 123.5 92.5t69.5 247.5q38 181 101 332t233 281.5t473 152.5v20q-237 73 -309 246.5t-105 446.5q-14 143 -72 295t-194 167h-25q-36 -9 -36 -45q0 -22 9.5 -40t27 -43.5t20.5 -30.5q33 -54 33 -115
q0 -139 -84 -206.5t-195 -67.5q-132 0 -221.5 99.5t-89.5 260.5q0 119 58 218.5t164 157.5t241 58q461 0 553 -639q36 -241 87 -375.5t123.5 -197t161.5 -78.5t246 -16h66v860q0 98 -49.5 135t-159.5 37h-193v192z" />
    <glyph glyph-name="afii10025" unicode="&#xc7;" horiz-adv-x="2585" 
d="M492 1815h-177l29 970h156l90 -143h12q206 118 361 168q182 57 380 57q300 0 517.5 -93t329.5 -240.5t112 -305.5q0 -140 -58.5 -279.5t-228.5 -257t-483 -163.5v-25q225 -19 447.5 -115.5t334.5 -236.5q144 -179 144 -389q0 -200 -125 -394t-388.5 -322t-654.5 -128
q-329 0 -529.5 65t-297.5 132q-316 225 -316 540q0 156 107 272t274 122q167 0 243.5 -89t76.5 -215q0 -44 -21.5 -97t-52.5 -87q-42 -46 -164 -90q-57 -24 -57 -53q0 -64 73 -141t207 -130t306 -53q353 0 479.5 214.5t126.5 457.5q0 278 -144.5 423t-309.5 186.5t-283 41.5
h-250v201h94h94q198 0 360 32t282 152t120 357q0 250 -141.5 381t-366.5 131q-210 0 -366.5 -121t-243 -318.5t-98.5 -416.5z" />
    <glyph glyph-name="afii10025" unicode="&#x417;" horiz-adv-x="2585" 
d="M492 1815h-177l29 970h156l90 -143h12q206 118 361 168q182 57 380 57q300 0 517.5 -93t329.5 -240.5t112 -305.5q0 -140 -58.5 -279.5t-228.5 -257t-483 -163.5v-25q225 -19 447.5 -115.5t334.5 -236.5q144 -179 144 -389q0 -200 -125 -394t-388.5 -322t-654.5 -128
q-329 0 -529.5 65t-297.5 132q-316 225 -316 540q0 156 107 272t274 122q167 0 243.5 -89t76.5 -215q0 -44 -21.5 -97t-52.5 -87q-42 -46 -164 -90q-57 -24 -57 -53q0 -64 73 -141t207 -130t306 -53q353 0 479.5 214.5t126.5 457.5q0 278 -144.5 423t-309.5 186.5t-283 41.5
h-250v201h94h94q198 0 360 32t282 152t120 357q0 250 -141.5 381t-366.5 131q-210 0 -366.5 -121t-243 -318.5t-98.5 -416.5z" />
    <glyph glyph-name="afii10026" unicode="&#xc8;" horiz-adv-x="3346" 
d="M139 2785h1422v-192h-181q-110 0 -159.5 -37.5t-49.5 -134.5v-1549l1004 1381v164q0 176 -152 176h-237v192h1421v-192h-192q-110 0 -159.5 -37t-49.5 -135v-2056q0 -98 49.5 -135t159.5 -37h192v-193h-1421v193h180q110 0 159.5 37t49.5 135v1572l-1004 -1376v-196
q0 -94 32.5 -133t172.5 -39h185v-193h-1422v193h193q110 0 159.5 37t49.5 135v2056q0 98 -49.5 135t-159.5 37h-193v192z" />
    <glyph glyph-name="afii10026" unicode="&#x418;" horiz-adv-x="3346" 
d="M139 2785h1422v-192h-181q-110 0 -159.5 -37.5t-49.5 -134.5v-1549l1004 1381v164q0 176 -152 176h-237v192h1421v-192h-192q-110 0 -159.5 -37t-49.5 -135v-2056q0 -98 49.5 -135t159.5 -37h192v-193h-1421v193h180q110 0 159.5 37t49.5 135v1572l-1004 -1376v-196
q0 -94 32.5 -133t172.5 -39h185v-193h-1422v193h193q110 0 159.5 37t49.5 135v2056q0 98 -49.5 135t-159.5 37h-193v192z" />
    <glyph glyph-name="afii10027" unicode="&#xc9;" horiz-adv-x="3346" 
d="M139 2785h1422v-192h-181q-110 0 -159.5 -37.5t-49.5 -134.5v-1549l1004 1381v164q0 176 -152 176h-237v192h1421v-192h-192q-110 0 -159.5 -37t-49.5 -135v-2056q0 -98 49.5 -135t159.5 -37h192v-193h-1421v193h180q110 0 159.5 37t49.5 135v1572l-1004 -1376v-196
q0 -94 32.5 -133t172.5 -39h185v-193h-1422v193h193q110 0 159.5 37t49.5 135v2056q0 98 -49.5 135t-159.5 37h-193v192zM1667 2908q-408 0 -550 123t-142 258q0 90 77.5 155.5t204.5 65.5q125 0 175.5 -58.5t50.5 -137.5q0 -37 -33 -78q-9 -12 -55.5 -45t-46.5 -49
q0 -37 106 -63.5t213 -26.5q101 0 210.5 26.5t109.5 63.5q0 18 -47 49t-60 45q-33 41 -33 78q0 196 226 196q129 0 205.5 -65t76.5 -156q0 -147 -159.5 -264t-528.5 -117z" />
    <glyph glyph-name="afii10027" unicode="&#x419;" horiz-adv-x="3346" 
d="M139 2785h1422v-192h-181q-110 0 -159.5 -37.5t-49.5 -134.5v-1549l1004 1381v164q0 176 -152 176h-237v192h1421v-192h-192q-110 0 -159.5 -37t-49.5 -135v-2056q0 -98 49.5 -135t159.5 -37h192v-193h-1421v193h180q110 0 159.5 37t49.5 135v1572l-1004 -1376v-196
q0 -94 32.5 -133t172.5 -39h185v-193h-1422v193h193q110 0 159.5 37t49.5 135v2056q0 98 -49.5 135t-159.5 37h-193v192zM1667 2908q-408 0 -550 123t-142 258q0 90 77.5 155.5t204.5 65.5q125 0 175.5 -58.5t50.5 -137.5q0 -37 -33 -78q-9 -12 -55.5 -45t-46.5 -49
q0 -37 106 -63.5t213 -26.5q101 0 210.5 26.5t109.5 63.5q0 18 -47 49t-60 45q-33 41 -33 78q0 196 226 196q129 0 205.5 -65t76.5 -156q0 -147 -159.5 -264t-528.5 -117z" />
    <glyph glyph-name="afii10028" unicode="&#xca;" horiz-adv-x="3162" 
d="M139 2785h1434v-192h-193q-110 0 -159.5 -37.5t-49.5 -134.5v-860h66q206 0 313.5 35.5t183.5 177t121 454.5q92 639 553 639q205 0 334 -125t129 -309q0 -161 -89.5 -260.5t-221.5 -99.5q-113 0 -196 67.5t-83 206.5q0 61 33 115q3 5 20.5 29.5t27.5 45.5t10 39
q0 45 -41 45h-17q-91 -7 -166 -114t-104 -348q-15 -133 -29 -214.5t-55 -180.5t-120.5 -178.5t-209.5 -119.5v-20q303 -22 473 -152.5t233 -281.5t101 -332q35 -165 72.5 -252.5t120.5 -87.5q80 0 136.5 118t59.5 279h197q-25 -348 -132.5 -530t-232 -235.5t-241.5 -53.5
q-186 0 -299 113t-160.5 251.5t-81.5 311.5q-20 113 -54 286t-97.5 280t-196 170t-357.5 63v-1028q0 -97 49.5 -134.5t159.5 -37.5h193v-193h-1434v193h193q110 0 159.5 37t49.5 135v2056q0 98 -49.5 135t-159.5 37h-193v192z" />
    <glyph glyph-name="afii10028" unicode="&#x41a;" horiz-adv-x="3162" 
d="M139 2785h1434v-192h-193q-110 0 -159.5 -37.5t-49.5 -134.5v-860h66q206 0 313.5 35.5t183.5 177t121 454.5q92 639 553 639q205 0 334 -125t129 -309q0 -161 -89.5 -260.5t-221.5 -99.5q-113 0 -196 67.5t-83 206.5q0 61 33 115q3 5 20.5 29.5t27.5 45.5t10 39
q0 45 -41 45h-17q-91 -7 -166 -114t-104 -348q-15 -133 -29 -214.5t-55 -180.5t-120.5 -178.5t-209.5 -119.5v-20q303 -22 473 -152.5t233 -281.5t101 -332q35 -165 72.5 -252.5t120.5 -87.5q80 0 136.5 118t59.5 279h197q-25 -348 -132.5 -530t-232 -235.5t-241.5 -53.5
q-186 0 -299 113t-160.5 251.5t-81.5 311.5q-20 113 -54 286t-97.5 280t-196 170t-357.5 63v-1028q0 -97 49.5 -134.5t159.5 -37.5h193v-193h-1434v193h193q110 0 159.5 37t49.5 135v2056q0 98 -49.5 135t-159.5 37h-193v192z" />
    <glyph glyph-name="afii10029" unicode="&#xcb;" horiz-adv-x="3326" 
d="M737 2593v192h2462v-192h-193q-109 0 -158.5 -37t-49.5 -135v-2056q0 -98 49.5 -135t158.5 -37h193v-193h-1434v193h193q110 0 159.5 37t49.5 135v2076q0 135 -123 135h-209q-143 0 -217.5 -56.5t-101.5 -155.5t-30.5 -251.5t-6.5 -306.5q-14 -523 -60 -892t-222.5 -658
t-532.5 -289q-187 0 -308.5 79t-175 191.5t-53.5 217.5q0 116 50 222t144 171t220 65q159 0 243 -104.5t84 -263.5q0 -91 -65 -168q-35 -42 -107 -82q-94 -48 -94 -102q0 -33 90 -33h8h13q139 0 254 119q118 121 186.5 358.5t94.5 497.5t26 483v532q0 279 -125.5 361
t-304.5 82h-107z" />
    <glyph glyph-name="afii10029" unicode="&#x41b;" horiz-adv-x="3326" 
d="M737 2593v192h2462v-192h-193q-109 0 -158.5 -37t-49.5 -135v-2056q0 -98 49.5 -135t158.5 -37h193v-193h-1434v193h193q110 0 159.5 37t49.5 135v2076q0 135 -123 135h-209q-143 0 -217.5 -56.5t-101.5 -155.5t-30.5 -251.5t-6.5 -306.5q-14 -523 -60 -892t-222.5 -658
t-532.5 -289q-187 0 -308.5 79t-175 191.5t-53.5 217.5q0 116 50 222t144 171t220 65q159 0 243 -104.5t84 -263.5q0 -91 -65 -168q-35 -42 -107 -82q-94 -48 -94 -102q0 -33 90 -33h8h13q139 0 254 119q118 121 186.5 358.5t94.5 497.5t26 483v532q0 279 -125.5 361
t-304.5 82h-107z" />
    <glyph glyph-name="afii10030" unicode="&#xcc;" horiz-adv-x="3809" 
d="M1298 2785l582 -1794h25l602 1794h1143v-192h-193q-110 0 -159.5 -37.5t-49.5 -134.5v-2056q0 -97 49.5 -134.5t159.5 -37.5h193v-193h-1434v193h192q110 0 159.5 37t49.5 135v2064h-20l-819 -2429h-185l-815 2470h-24v-1938q0 -218 83 -278.5t224 -60.5h90v-193h-987
v193h86q138 0 224.5 61t86.5 278v1889q0 98 -49.5 135t-159.5 37h-192v192h1138z" />
    <glyph glyph-name="afii10030" unicode="&#x41c;" horiz-adv-x="3809" 
d="M1298 2785l582 -1794h25l602 1794h1143v-192h-193q-110 0 -159.5 -37.5t-49.5 -134.5v-2056q0 -97 49.5 -134.5t159.5 -37.5h193v-193h-1434v193h192q110 0 159.5 37t49.5 135v2064h-20l-819 -2429h-185l-815 2470h-24v-1938q0 -218 83 -278.5t224 -60.5h90v-193h-987
v193h86q138 0 224.5 61t86.5 278v1889q0 98 -49.5 135t-159.5 37h-192v192h1138z" />
    <glyph glyph-name="afii10031" unicode="&#xcd;" horiz-adv-x="3383" 
d="M1171 1630h1041v791q0 98 -49.5 135t-159.5 37h-135v192h1376v-192h-192q-110 0 -159.5 -37t-49.5 -135v-2056q0 -98 49.5 -135t159.5 -37h192v-193h-1376v193h135q110 0 159.5 37t49.5 135v1077h-1041v-1077q0 -97 49.5 -134.5t159.5 -37.5h136v-193h-1377v193h193
q110 0 159.5 37t49.5 135v2056q0 98 -49.5 135t-159.5 37h-193v192h1377v-192h-136q-110 0 -159.5 -37.5t-49.5 -134.5v-791z" />
    <glyph glyph-name="afii10031" unicode="&#x41d;" horiz-adv-x="3383" 
d="M1171 1630h1041v791q0 98 -49.5 135t-159.5 37h-135v192h1376v-192h-192q-110 0 -159.5 -37t-49.5 -135v-2056q0 -98 49.5 -135t159.5 -37h192v-193h-1376v193h135q110 0 159.5 37t49.5 135v1077h-1041v-1077q0 -97 49.5 -134.5t159.5 -37.5h136v-193h-1377v193h193
q110 0 159.5 37t49.5 135v2056q0 98 -49.5 135t-159.5 37h-193v192h1377v-192h-136q-110 0 -159.5 -37.5t-49.5 -134.5v-791z" />
    <glyph glyph-name="afii10032" unicode="&#xce;" horiz-adv-x="2966" 
d="M127 1393q0 245 82 503.5t251 480t427.5 356t595.5 134.5q338 0 597 -134.5t426.5 -354.5t250 -478t82.5 -507q0 -397 -173.5 -737t-484.5 -539t-698 -199q-293 0 -543 115t-433 321t-281.5 474t-98.5 565zM840 1393q0 -524 119 -901t532 -377q260 0 400.5 178t187.5 458
t47 642q0 674 -154 976t-481 302q-245 0 -389 -154.5t-203 -437t-59 -686.5z" />
    <glyph glyph-name="afii10032" unicode="&#x41e;" horiz-adv-x="2966" 
d="M127 1393q0 245 82 503.5t251 480t427.5 356t595.5 134.5q338 0 597 -134.5t426.5 -354.5t250 -478t82.5 -507q0 -397 -173.5 -737t-484.5 -539t-698 -199q-293 0 -543 115t-433 321t-281.5 474t-98.5 565zM840 1393q0 -524 119 -901t532 -377q260 0 400.5 178t187.5 458
t47 642q0 674 -154 976t-481 302q-245 0 -389 -154.5t-203 -437t-59 -686.5z" />
    <glyph glyph-name="afii10033" unicode="&#xcf;" horiz-adv-x="3420" 
d="M139 2785h3142v-192h-193q-110 0 -159.5 -37.5t-49.5 -134.5v-2056q0 -97 49.5 -134.5t159.5 -37.5h193v-193h-1434v193h193q110 0 159.5 37t49.5 135v2052q0 176 -152 176h-778q-148 0 -148 -176v-2052q0 -97 49.5 -134.5t159.5 -37.5h193v-193h-1434v193h193
q110 0 159.5 37t49.5 135v2056q0 98 -49.5 135t-159.5 37h-193v192z" />
    <glyph glyph-name="afii10033" unicode="&#x41f;" horiz-adv-x="3420" 
d="M139 2785h3142v-192h-193q-110 0 -159.5 -37.5t-49.5 -134.5v-2056q0 -97 49.5 -134.5t159.5 -37.5h193v-193h-1434v193h193q110 0 159.5 37t49.5 135v2052q0 176 -152 176h-778q-148 0 -148 -176v-2052q0 -97 49.5 -134.5t159.5 -37.5h193v-193h-1434v193h193
q110 0 159.5 37t49.5 135v2056q0 98 -49.5 135t-159.5 37h-193v192z" />
    <glyph glyph-name="afii10034" unicode="&#xd0;" horiz-adv-x="2777" 
d="M1171 1176v-811q0 -97 49.5 -134.5t159.5 -37.5h193v-193h-1434v193h193q110 0 159.5 37t49.5 135v2056q0 98 -49.5 135t-159.5 37h-193v192h1360q470 0 733 -136t353 -321t90 -366q0 -319 -231 -552.5t-842 -233.5h-431zM1171 1368h185q257 0 389.5 75t174.5 205t42 339
q0 270 -91 403t-214 167t-281 36h-78q-84 -3 -105.5 -34t-21.5 -101v-1090z" />
    <glyph glyph-name="afii10034" unicode="&#x420;" horiz-adv-x="2777" 
d="M1171 1176v-811q0 -97 49.5 -134.5t159.5 -37.5h193v-193h-1434v193h193q110 0 159.5 37t49.5 135v2056q0 98 -49.5 135t-159.5 37h-193v192h1360q470 0 733 -136t353 -321t90 -366q0 -319 -231 -552.5t-842 -233.5h-431zM1171 1368h185q257 0 389.5 75t174.5 205t42 339
q0 270 -91 403t-214 167t-281 36h-78q-84 -3 -105.5 -34t-21.5 -101v-1090z" />
    <glyph glyph-name="afii10035" unicode="&#xd1;" horiz-adv-x="2687" 
d="M2363 864h222q-51 -214 -170 -426.5t-353 -366t-587 -153.5q-299 0 -547 115.5t-428 324t-276.5 484.5t-96.5 583q0 277 87 535t252.5 463.5t401.5 324.5t521 119q213 0 391.5 -59t386.5 -199l123 176h155l33 -1048h-192q-113 514 -335 719.5t-456 205.5
q-289 0 -472 -282.5t-183 -949.5q0 -381 68.5 -662t225.5 -442.5t410 -161.5q193 0 361 87t288 247t170 366z" />
    <glyph glyph-name="afii10035" unicode="&#x421;" horiz-adv-x="2687" 
d="M2363 864h222q-51 -214 -170 -426.5t-353 -366t-587 -153.5q-299 0 -547 115.5t-428 324t-276.5 484.5t-96.5 583q0 277 87 535t252.5 463.5t401.5 324.5t521 119q213 0 391.5 -59t386.5 -199l123 176h155l33 -1048h-192q-113 514 -335 719.5t-456 205.5
q-289 0 -472 -282.5t-183 -949.5q0 -381 68.5 -662t225.5 -442.5t410 -161.5q193 0 361 87t288 247t170 366z" />
    <glyph glyph-name="afii10036" unicode="&#xd2;" horiz-adv-x="2753" 
d="M90 2785h2572v-1061h-204q-17 273 -101.5 452t-194.5 267.5t-211.5 119t-176.5 30.5h-82v-2228q0 -98 49.5 -135t159.5 -37h192v-193h-1434v193h193q110 0 159.5 37t49.5 135v2228h-78q-129 0 -278 -71.5t-269 -266t-141 -531.5h-205v1061z" />
    <glyph glyph-name="afii10036" unicode="&#x422;" horiz-adv-x="2753" 
d="M90 2785h2572v-1061h-204q-17 273 -101.5 452t-194.5 267.5t-211.5 119t-176.5 30.5h-82v-2228q0 -98 49.5 -135t159.5 -37h192v-193h-1434v193h193q110 0 159.5 37t49.5 135v2228h-78q-129 0 -278 -71.5t-269 -266t-141 -531.5h-205v1061z" />
    <glyph glyph-name="afii10037" unicode="&#xd3;" horiz-adv-x="3183" 
d="M1880 1192l508 1024q61 126 61 192q0 185 -303 185h-110v192h1056v-192q-169 -5 -261.5 -102.5t-196.5 -295.5l-996 -1839q-239 -438 -655 -438q-235 0 -389 106.5t-222.5 259t-68.5 294.5q0 202 136 318t298 116q133 0 232.5 -98.5t99.5 -262.5q0 -85 -63 -160.5
t-150 -101.5q-38 -8 -79.5 -17t-71 -28.5t-29.5 -56.5q0 -54 85 -113t222 -59q160 0 303.5 119t216.5 311l-979 1818q-25 53 -94.5 117t-179.5 88q-4 1 -37 8q-70 17 -98 17v192h1454v-192h-131q-217 0 -217 -131q0 -32 36 -115l598 -1155h25z" />
    <glyph glyph-name="afii10037" unicode="&#x423;" horiz-adv-x="3183" 
d="M1880 1192l508 1024q61 126 61 192q0 185 -303 185h-110v192h1056v-192q-169 -5 -261.5 -102.5t-196.5 -295.5l-996 -1839q-239 -438 -655 -438q-235 0 -389 106.5t-222.5 259t-68.5 294.5q0 202 136 318t298 116q133 0 232.5 -98.5t99.5 -262.5q0 -85 -63 -160.5
t-150 -101.5q-38 -8 -79.5 -17t-71 -28.5t-29.5 -56.5q0 -54 85 -113t222 -59q160 0 303.5 119t216.5 311l-979 1818q-25 53 -94.5 117t-179.5 88q-4 1 -37 8q-70 17 -98 17v192h1454v-192h-131q-217 0 -217 -131q0 -32 36 -115l598 -1155h25z" />
    <glyph glyph-name="afii10038" unicode="&#xd4;" horiz-adv-x="3686" 
d="M1143 0v193h180q94 0 149.5 26t55.5 125v115h-131q-468 0 -751.5 124t-401 328t-117.5 457q0 954 1294 954h107v115q0 102 -55.5 129t-149.5 27h-193v192h1426v-192h-189q-115 0 -161.5 -36t-46.5 -169v-66h106q1294 0 1294 -954q0 -401 -292 -655t-977 -254h-131v-115
q0 -98 60 -124.5t148 -26.5h181v-193h-1405zM1528 651v1479h-94q-337 0 -465.5 -189t-128.5 -561q0 -238 53 -397.5t185.5 -245.5t359.5 -86h90zM2159 651h94q337 0 465.5 182t128.5 547q0 388 -131 569t-459 181h-98v-1479z" />
    <glyph glyph-name="afii10038" unicode="&#x424;" horiz-adv-x="3686" 
d="M1143 0v193h180q94 0 149.5 26t55.5 125v115h-131q-468 0 -751.5 124t-401 328t-117.5 457q0 954 1294 954h107v115q0 102 -55.5 129t-149.5 27h-193v192h1426v-192h-189q-115 0 -161.5 -36t-46.5 -169v-66h106q1294 0 1294 -954q0 -401 -292 -655t-977 -254h-131v-115
q0 -98 60 -124.5t148 -26.5h181v-193h-1405zM1528 651v1479h-94q-337 0 -465.5 -189t-128.5 -561q0 -238 53 -397.5t185.5 -245.5t359.5 -86h90zM2159 651h94q337 0 465.5 182t128.5 547q0 388 -131 569t-459 181h-98v-1479z" />
    <glyph glyph-name="afii10039" unicode="&#xd5;" horiz-adv-x="3445" 
d="M127 2593v192h1503v-192h-65q-185 0 -185 -90q0 -63 66 -156l397 -537h12l414 562q41 54 41 106q0 89 -123 107q-16 0 -37 4q-45 4 -86 4h-41v192h1098v-192h-45q-318 0 -516 -213q-14 -17 -33.5 -38t-27.5 -32l-517 -651l852 -1143q255 -323 435 -323h61v-193h-1565v193
h181q196 0 196 110q0 73 -86 189l-508 712h-20l-529 -704q-24 -30 -45.5 -57.5t-35 -52.5t-13.5 -54q0 -143 152 -143h213v-193h-1143v193q226 0 340 73t201 176l745 930l-766 967q-108 139 -197 196.5t-266 57.5h-57z" />
    <glyph glyph-name="afii10039" unicode="&#x425;" horiz-adv-x="3445" 
d="M127 2593v192h1503v-192h-65q-185 0 -185 -90q0 -63 66 -156l397 -537h12l414 562q41 54 41 106q0 89 -123 107q-16 0 -37 4q-45 4 -86 4h-41v192h1098v-192h-45q-318 0 -516 -213q-14 -17 -33.5 -38t-27.5 -32l-517 -651l852 -1143q255 -323 435 -323h61v-193h-1565v193
h181q196 0 196 110q0 73 -86 189l-508 712h-20l-529 -704q-24 -30 -45.5 -57.5t-35 -52.5t-13.5 -54q0 -143 152 -143h213v-193h-1143v193q226 0 340 73t201 176l745 930l-766 967q-108 139 -197 196.5t-266 57.5h-57z" />
    <glyph glyph-name="afii10040" unicode="&#xd6;" horiz-adv-x="3424" 
d="M147 2785h1434v-192h-192q-110 0 -159.5 -37t-49.5 -135v-2056q0 -98 49.5 -135t159.5 -37h659q110 0 159.5 37t49.5 135v2056q0 98 -49.5 135t-159.5 37h-193v192h1434v-192h-192q-110 0 -159.5 -37t-49.5 -135v-2056q0 -110 42 -141t109 -31h283v-996h-189
q0 164 -49 308.5t-145.5 256t-237 175t-317.5 63.5h-2237v193h193q110 0 159.5 37t49.5 135v2056q0 98 -49.5 135t-159.5 37h-193v192z" />
    <glyph glyph-name="afii10040" unicode="&#x426;" horiz-adv-x="3424" 
d="M147 2785h1434v-192h-192q-110 0 -159.5 -37t-49.5 -135v-2056q0 -98 49.5 -135t159.5 -37h659q110 0 159.5 37t49.5 135v2056q0 98 -49.5 135t-159.5 37h-193v192h1434v-192h-192q-110 0 -159.5 -37t-49.5 -135v-2056q0 -110 42 -141t109 -31h283v-996h-189
q0 164 -49 308.5t-145.5 256t-237 175t-317.5 63.5h-2237v193h193q110 0 159.5 37t49.5 135v2056q0 98 -49.5 135t-159.5 37h-193v192z" />
    <glyph glyph-name="afii10041" unicode="&#xd7;" horiz-adv-x="3236" 
d="M90 2785h1385v-192h-144q-110 0 -159.5 -37.5t-49.5 -134.5v-684q0 -189 82.5 -285t343.5 -96q199 0 516 61v1004q0 98 -49.5 135t-159.5 37h-143v192h1385v-192h-193q-110 0 -159.5 -37.5t-49.5 -134.5v-2056q0 -97 49.5 -134.5t159.5 -37.5h193v-193h-1434v193h192
q110 0 159.5 37t49.5 135v888q-454 -123 -798 -123q-774 0 -774 631v660q0 98 -49.5 135t-159.5 37h-193v192z" />
    <glyph glyph-name="afii10041" unicode="&#x427;" horiz-adv-x="3236" 
d="M90 2785h1385v-192h-144q-110 0 -159.5 -37.5t-49.5 -134.5v-684q0 -189 82.5 -285t343.5 -96q199 0 516 61v1004q0 98 -49.5 135t-159.5 37h-143v192h1385v-192h-193q-110 0 -159.5 -37.5t-49.5 -134.5v-2056q0 -97 49.5 -134.5t159.5 -37.5h193v-193h-1434v193h192
q110 0 159.5 37t49.5 135v888q-454 -123 -798 -123q-774 0 -774 631v660q0 98 -49.5 135t-159.5 37h-193v192z" />
    <glyph glyph-name="afii10042" unicode="&#xd8;" horiz-adv-x="4506" 
d="M139 2785h1323v-192h-94q-143 0 -176 -39t-33 -133v-2056q0 -91 34.5 -131.5t174.5 -40.5h361q107 0 157.5 29t50.5 143v2056q0 94 -33 133t-175 39h-95v192h1237v-192h-94q-143 0 -176 -39t-33 -133v-2056q0 -94 32.5 -133t172.5 -39h365q138 0 173 40.5t35 131.5v2056
q0 94 -33 133t-175 39h-95v192h1323v-192h-180q-143 0 -176 -39t-33 -133v-2056q0 -94 33.5 -133t175.5 -39h180v-193h-4227v193h180q142 0 175.5 39t33.5 133v2056q0 94 -33 133t-176 39h-180v192z" />
    <glyph glyph-name="afii10042" unicode="&#x428;" horiz-adv-x="4506" 
d="M139 2785h1323v-192h-94q-143 0 -176 -39t-33 -133v-2056q0 -91 34.5 -131.5t174.5 -40.5h361q107 0 157.5 29t50.5 143v2056q0 94 -33 133t-175 39h-95v192h1237v-192h-94q-143 0 -176 -39t-33 -133v-2056q0 -94 32.5 -133t172.5 -39h365q138 0 173 40.5t35 131.5v2056
q0 94 -33 133t-175 39h-95v192h1323v-192h-180q-143 0 -176 -39t-33 -133v-2056q0 -94 33.5 -133t175.5 -39h180v-193h-4227v193h180q142 0 175.5 39t33.5 133v2056q0 94 -33 133t-176 39h-180v192z" />
    <glyph glyph-name="afii10043" unicode="&#xd9;" horiz-adv-x="4538" 
d="M139 2785h1323v-192h-94q-143 0 -176 -39t-33 -133v-2056q0 -91 34.5 -131.5t174.5 -40.5h361q107 0 157.5 29t50.5 143v2056q0 94 -33 133t-175 39h-95v192h1237v-192h-94q-143 0 -176 -39t-33 -133v-2056q0 -94 32.5 -133t172.5 -39h365q138 0 173 40.5t35 131.5v2056
q0 94 -33 133t-175 39h-95v192h1323v-192h-180q-143 0 -176 -39t-33 -133v-2056q0 -94 33.5 -133t175.5 -39h283v-996h-189q0 164 -49 308.5t-145.5 256t-237 175t-317.5 63.5h-3392v193h180q142 0 175.5 39t33.5 133v2056q0 94 -33 133t-176 39h-180v192z" />
    <glyph glyph-name="afii10043" unicode="&#x429;" horiz-adv-x="4538" 
d="M139 2785h1323v-192h-94q-143 0 -176 -39t-33 -133v-2056q0 -91 34.5 -131.5t174.5 -40.5h361q107 0 157.5 29t50.5 143v2056q0 94 -33 133t-175 39h-95v192h1237v-192h-94q-143 0 -176 -39t-33 -133v-2056q0 -94 32.5 -133t172.5 -39h365q138 0 173 40.5t35 131.5v2056
q0 94 -33 133t-175 39h-95v192h1323v-192h-180q-143 0 -176 -39t-33 -133v-2056q0 -94 33.5 -133t175.5 -39h283v-996h-189q0 164 -49 308.5t-145.5 256t-237 175t-317.5 63.5h-3392v193h180q142 0 175.5 39t33.5 133v2056q0 94 -33 133t-176 39h-180v192z" />
    <glyph glyph-name="afii10044" unicode="&#xda;" horiz-adv-x="3396" 
d="M2130 2785v-192h-180q-110 0 -159.5 -37t-49.5 -135v-832h127q391 0 632 -39t441 -170q200 -130 264 -297.5t64 -312.5q0 -186 -101.5 -360t-372 -292t-731.5 -118h-1355v193h192q110 0 159.5 37t49.5 135v2228h-86q-104 0 -253 -63t-280.5 -257t-150.5 -549h-201v1061
h1991zM1741 1401v-1118q0 -90 123 -90h172q327 0 421.5 209t94.5 413q0 184 -57 309t-235.5 201t-518.5 76z" />
    <glyph glyph-name="afii10044" unicode="&#x42a;" horiz-adv-x="3396" 
d="M2130 2785v-192h-180q-110 0 -159.5 -37t-49.5 -135v-832h127q391 0 632 -39t441 -170q200 -130 264 -297.5t64 -312.5q0 -186 -101.5 -360t-372 -292t-731.5 -118h-1355v193h192q110 0 159.5 37t49.5 135v2228h-86q-104 0 -253 -63t-280.5 -257t-150.5 -549h-201v1061
h1991zM1741 1401v-1118q0 -90 123 -90h172q327 0 421.5 209t94.5 413q0 184 -57 309t-235.5 201t-518.5 76z" />
    <glyph glyph-name="afii10045" unicode="&#xdb;" horiz-adv-x="4198" 
d="M115 2785h1433v-192h-192q-110 0 -159.5 -37.5t-49.5 -134.5v-832h127q365 0 668.5 -55t516 -236.5t212.5 -527.5q0 -345 -287.5 -557.5t-913.5 -212.5h-1355v193h192q110 0 159.5 37t49.5 135v2056q0 98 -49.5 135t-159.5 37h-192v192zM1147 1401v-1061q0 -147 123 -147
h176q255 0 383.5 164.5t128.5 457.5q0 184 -56 308.5t-234.5 201t-520.5 76.5zM2650 0v193h193q110 0 159.5 37t49.5 135v2056q0 98 -49.5 135t-159.5 37h-193v192h1434v-192h-193q-110 0 -159.5 -37.5t-49.5 -134.5v-2056q0 -97 49.5 -134.5t159.5 -37.5h193v-193h-1434z
" />
    <glyph glyph-name="afii10045" unicode="&#x42b;" horiz-adv-x="4198" 
d="M115 2785h1433v-192h-192q-110 0 -159.5 -37.5t-49.5 -134.5v-832h127q365 0 668.5 -55t516 -236.5t212.5 -527.5q0 -345 -287.5 -557.5t-913.5 -212.5h-1355v193h192q110 0 159.5 37t49.5 135v2056q0 98 -49.5 135t-159.5 37h-192v192zM1147 1401v-1061q0 -147 123 -147
h176q255 0 383.5 164.5t128.5 457.5q0 184 -56 308.5t-234.5 201t-520.5 76.5zM2650 0v193h193q110 0 159.5 37t49.5 135v2056q0 98 -49.5 135t-159.5 37h-193v192h1434v-192h-193q-110 0 -159.5 -37.5t-49.5 -134.5v-2056q0 -97 49.5 -134.5t159.5 -37.5h193v-193h-1434z
" />
    <glyph glyph-name="afii10046" unicode="&#xdc;" horiz-adv-x="2789" 
d="M139 2785h1434v-192h-193q-110 0 -159.5 -37.5t-49.5 -134.5v-832h132q607 0 1001.5 -159.5t394.5 -643.5q0 -196 -104 -373.5t-372 -295t-724 -117.5h-1360v193h193q110 0 159.5 37t49.5 135v2056q0 98 -49.5 135t-159.5 37h-193v192zM1171 1401v-1061q0 -147 127 -147
h172q323 0 420 200.5t97 421.5q0 184 -56 308.5t-235.5 201t-524.5 76.5z" />
    <glyph glyph-name="afii10046" unicode="&#x42c;" horiz-adv-x="2789" 
d="M139 2785h1434v-192h-193q-110 0 -159.5 -37.5t-49.5 -134.5v-832h132q607 0 1001.5 -159.5t394.5 -643.5q0 -196 -104 -373.5t-372 -295t-724 -117.5h-1360v193h193q110 0 159.5 37t49.5 135v2056q0 98 -49.5 135t-159.5 37h-193v192zM1171 1401v-1061q0 -147 127 -147
h172q323 0 420 200.5t97 421.5q0 184 -56 308.5t-235.5 201t-524.5 76.5z" />
    <glyph glyph-name="afii10047" unicode="&#xdd;" horiz-adv-x="2707" 
d="M389 1757l-160 -4v1032h189l127 -192h16q204 141 370.5 207.5t383.5 66.5q239 0 460.5 -87t400 -260.5t281.5 -431.5t103 -589q0 -337 -103.5 -628t-293 -505t-448.5 -331t-560 -117q-257 0 -494.5 98t-385.5 281.5t-148 419.5q0 217 117 340t276 123q147 0 241.5 -95.5
t94.5 -236.5q0 -143 -106 -230q-26 -20 -52.5 -34.5t-57.5 -29.5t-54 -26q-47 -16 -62.5 -29t-15.5 -48q0 -81 80.5 -159.5t212.5 -127.5t276 -49q432 0 601 352t169 934h-942v196h942q-15 493 -143.5 783.5t-474.5 290.5q-420 0 -672 -435q-117 -197 -168 -479z" />
    <glyph glyph-name="afii10047" unicode="&#x42d;" horiz-adv-x="2707" 
d="M389 1757l-160 -4v1032h189l127 -192h16q204 141 370.5 207.5t383.5 66.5q239 0 460.5 -87t400 -260.5t281.5 -431.5t103 -589q0 -337 -103.5 -628t-293 -505t-448.5 -331t-560 -117q-257 0 -494.5 98t-385.5 281.5t-148 419.5q0 217 117 340t276 123q147 0 241.5 -95.5
t94.5 -236.5q0 -143 -106 -230q-26 -20 -52.5 -34.5t-57.5 -29.5t-54 -26q-47 -16 -62.5 -29t-15.5 -48q0 -81 80.5 -159.5t212.5 -127.5t276 -49q432 0 601 352t169 934h-942v196h942q-15 493 -143.5 783.5t-474.5 290.5q-420 0 -672 -435q-117 -197 -168 -479z" />
    <glyph glyph-name="afii10048" unicode="&#xde;" horiz-adv-x="4551" 
d="M1147 1630h590q56 308 218 590.5t446.5 464.5t678.5 182q339 0 598 -135t426 -355.5t249.5 -477.5t82.5 -506q0 -297 -99 -566.5t-280.5 -474t-432 -319.5t-544.5 -115q-314 0 -565 128.5t-426 351t-263.5 494t-88.5 550.5h-590v-1077q0 -97 49.5 -134.5t159.5 -37.5h192
v-193h-1433v193h192q110 0 159.5 37t49.5 135v2056q0 98 -49.5 135t-159.5 37h-192v192h1433v-192h-192q-110 0 -159.5 -37.5t-49.5 -134.5v-791zM2449 1393q0 -360 47 -640t188 -459t400 -179q265 0 405.5 179.5t187 455.5t46.5 643q0 407 -57 688.5t-198.5 435.5
t-383.5 154q-238 0 -379 -153t-198.5 -433.5t-57.5 -691.5z" />
    <glyph glyph-name="afii10048" unicode="&#x42e;" horiz-adv-x="4551" 
d="M1147 1630h590q56 308 218 590.5t446.5 464.5t678.5 182q339 0 598 -135t426 -355.5t249.5 -477.5t82.5 -506q0 -297 -99 -566.5t-280.5 -474t-432 -319.5t-544.5 -115q-314 0 -565 128.5t-426 351t-263.5 494t-88.5 550.5h-590v-1077q0 -97 49.5 -134.5t159.5 -37.5h192
v-193h-1433v193h192q110 0 159.5 37t49.5 135v2056q0 98 -49.5 135t-159.5 37h-192v192h1433v-192h-192q-110 0 -159.5 -37.5t-49.5 -134.5v-791zM2449 1393q0 -360 47 -640t188 -459t400 -179q265 0 405.5 179.5t187 455.5t46.5 643q0 407 -57 688.5t-198.5 435.5
t-383.5 154q-238 0 -379 -153t-198.5 -433.5t-57.5 -691.5z" />
    <glyph glyph-name="afii10049" unicode="&#xdf;" horiz-adv-x="3224" 
d="M127 688h192v-74q0 -164 59.5 -256t141.5 -92q165 0 209 320q30 211 77 348t178.5 257t379.5 189v17q-210 22 -414.5 90.5t-351.5 217t-147 384.5t149 393t396 230t544 73h1544v-192h-192q-110 0 -159.5 -37.5t-49.5 -134.5v-2056q0 -97 49.5 -134.5t159.5 -37.5h192
v-193h-1433v193h192q110 0 159.5 37t49.5 135v933h-328q-163 0 -240.5 -70.5t-108.5 -203.5t-68 -434q-19 -155 -65 -298.5t-177.5 -258.5t-372.5 -115q-206 0 -333 112.5t-179.5 287t-52.5 370.5zM2052 1495v868q0 121 -26 167t-134 46h-233q-251 0 -400 -131.5
t-149 -400.5q0 -173 115 -361t499 -188h328z" />
    <glyph glyph-name="afii10049" unicode="&#x42f;" horiz-adv-x="3224" 
d="M127 688h192v-74q0 -164 59.5 -256t141.5 -92q165 0 209 320q30 211 77 348t178.5 257t379.5 189v17q-210 22 -414.5 90.5t-351.5 217t-147 384.5t149 393t396 230t544 73h1544v-192h-192q-110 0 -159.5 -37.5t-49.5 -134.5v-2056q0 -97 49.5 -134.5t159.5 -37.5h192
v-193h-1433v193h192q110 0 159.5 37t49.5 135v933h-328q-163 0 -240.5 -70.5t-108.5 -203.5t-68 -434q-19 -155 -65 -298.5t-177.5 -258.5t-372.5 -115q-206 0 -333 112.5t-179.5 287t-52.5 370.5zM2052 1495v868q0 121 -26 167t-134 46h-233q-251 0 -400 -131.5
t-149 -400.5q0 -173 115 -361t499 -188h328z" />
    <glyph glyph-name="afii10065" unicode="&#xe0;" horiz-adv-x="2310" 
d="M2126 389l98 -70q-225 -389 -520 -389q-239 0 -352 238q-198 -127 -337 -182.5t-327 -55.5q-190 0 -313 70.5t-179.5 171.5t-56.5 193q0 158 104.5 322.5t367 292t692.5 159.5v307q0 103 -62 211t-262 108q-70 0 -156 -31.5t-86 -86.5q0 -24 25 -74q37 -66 37 -135
q0 -102 -69 -174t-189 -72q-131 0 -190.5 81.5t-59.5 168.5q0 113 83.5 227.5t265.5 191t454 76.5q761 0 761 -688v-803q0 -101 13.5 -150.5t64.5 -49.5q113 0 193 143zM1303 541v422q-276 -81 -421 -186.5t-145 -297.5q0 -303 209 -303q96 0 179 56.5t130.5 142.5t47.5 166
z" />
    <glyph glyph-name="afii10065" unicode="&#x430;" horiz-adv-x="2310" 
d="M2126 389l98 -70q-225 -389 -520 -389q-239 0 -352 238q-198 -127 -337 -182.5t-327 -55.5q-190 0 -313 70.5t-179.5 171.5t-56.5 193q0 158 104.5 322.5t367 292t692.5 159.5v307q0 103 -62 211t-262 108q-70 0 -156 -31.5t-86 -86.5q0 -24 25 -74q37 -66 37 -135
q0 -102 -69 -174t-189 -72q-131 0 -190.5 81.5t-59.5 168.5q0 113 83.5 227.5t265.5 191t454 76.5q761 0 761 -688v-803q0 -101 13.5 -150.5t64.5 -49.5q113 0 193 143zM1303 541v422q-276 -81 -421 -186.5t-145 -297.5q0 -303 209 -303q96 0 179 56.5t130.5 142.5t47.5 166
z" />
    <glyph glyph-name="afii10066" unicode="&#xe1;" horiz-adv-x="2200" 
d="M1921 2839h102q-31 -389 -218 -495.5t-445 -111.5q-324 -6 -512.5 -45.5t-321.5 -192.5t-166 -470h25q33 45 53 78q108 157 280.5 246t379.5 89q249 0 471 -116.5t356.5 -338.5t134.5 -519q-5 -296 -126 -531t-340.5 -368.5t-503.5 -133.5q-211 0 -426.5 96.5t-370 354
t-154.5 696.5q0 549 144.5 877t365.5 471.5t415.5 175.5t491.5 45q106 5 154 15.5t95.5 48.5t115.5 129zM1106 123q161 11 238.5 109t97.5 242t20 378v98q0 340 -32 480q-37 162 -125.5 238.5t-190.5 76.5q-225 0 -301 -185.5t-76 -478.5v-245q0 -220 24 -370t105.5 -246.5
t239.5 -96.5z" />
    <glyph glyph-name="afii10066" unicode="&#x431;" horiz-adv-x="2200" 
d="M1921 2839h102q-31 -389 -218 -495.5t-445 -111.5q-324 -6 -512.5 -45.5t-321.5 -192.5t-166 -470h25q33 45 53 78q108 157 280.5 246t379.5 89q249 0 471 -116.5t356.5 -338.5t134.5 -519q-5 -296 -126 -531t-340.5 -368.5t-503.5 -133.5q-211 0 -426.5 96.5t-370 354
t-154.5 696.5q0 549 144.5 877t365.5 471.5t415.5 175.5t491.5 45q106 5 154 15.5t95.5 48.5t115.5 129zM1106 123q161 11 238.5 109t97.5 242t20 378v98q0 340 -32 480q-37 162 -125.5 238.5t-190.5 76.5q-225 0 -301 -185.5t-76 -478.5v-245q0 -220 24 -370t105.5 -246.5
t239.5 -96.5z" />
    <glyph glyph-name="afii10067" unicode="&#xe2;" horiz-adv-x="2261" 
d="M115 1868h1220q379 0 515.5 -135.5t136.5 -307.5q0 -310 -496 -417v-21q329 -46 463.5 -185.5t134.5 -309.5q0 -100 -54.5 -211.5t-200 -196t-400.5 -84.5h-1319v188h147q139 0 139 123v1245q0 123 -139 123h-147v189zM954 1065h140q344 0 344 307t-283 307h-94
q-107 0 -107 -86v-528zM954 901v-610q0 -103 119 -103h123q104 0 199.5 78t95.5 258q0 209 -79.5 293t-272.5 84h-185z" />
    <glyph glyph-name="afii10067" unicode="&#x432;" horiz-adv-x="2261" 
d="M115 1868h1220q379 0 515.5 -135.5t136.5 -307.5q0 -310 -496 -417v-21q329 -46 463.5 -185.5t134.5 -309.5q0 -100 -54.5 -211.5t-200 -196t-400.5 -84.5h-1319v188h147q139 0 139 123v1245q0 123 -139 123h-147v189zM954 1065h140q344 0 344 307t-283 307h-94
q-107 0 -107 -86v-528zM954 901v-610q0 -103 119 -103h123q104 0 199.5 78t95.5 258q0 209 -79.5 293t-272.5 84h-185z" />
    <glyph glyph-name="afii10068" unicode="&#xe3;" horiz-adv-x="1905" 
d="M115 1868h1700v-754h-148q-14 59 -20 103q-43 218 -147 307.5t-230 130.5q-80 24 -148 24h-53q-75 -3 -95 -43.5t-20 -107.5v-1217q0 -123 140 -123h147v-188h-1126v188h147q139 0 139 123v1245q0 123 -139 123h-147v189z" />
    <glyph glyph-name="afii10068" unicode="&#x433;" horiz-adv-x="1905" 
d="M115 1868h1700v-754h-148q-14 59 -20 103q-43 218 -147 307.5t-230 130.5q-80 24 -148 24h-53q-75 -3 -95 -43.5t-20 -107.5v-1217q0 -123 140 -123h147v-188h-1126v188h147q139 0 139 123v1245q0 123 -139 123h-147v189z" />
    <glyph glyph-name="afii10069" unicode="&#xe4;" horiz-adv-x="2249" 
d="M279 1679v189h1855v-189h-168q-139 0 -139 -123v-1269q0 -115 147 -115h135v-745h-143q-4 257 -99 383t-226 158t-310 32h-663q-270 0 -395.5 -178.5t-129.5 -394.5h-143v745h94q151 0 228.5 96.5t152.5 399.5q44 176 81.5 413t37.5 377q0 108 -44.5 164.5t-176.5 56.5
h-94zM545 172h594q135 0 135 131v1270q0 49 -31 77.5t-153 28.5h-144q-82 0 -116.5 -26.5t-47.5 -92.5t-28 -229q-22 -239 -54.5 -415t-55.5 -258.5t-67.5 -229t-56.5 -215.5v-20q9 -21 25 -21z" />
    <glyph glyph-name="afii10069" unicode="&#x434;" horiz-adv-x="2249" 
d="M279 1679v189h1855v-189h-168q-139 0 -139 -123v-1269q0 -115 147 -115h135v-745h-143q-4 257 -99 383t-226 158t-310 32h-663q-270 0 -395.5 -178.5t-129.5 -394.5h-143v745h94q151 0 228.5 96.5t152.5 399.5q44 176 81.5 413t37.5 377q0 108 -44.5 164.5t-176.5 56.5
h-94zM545 172h594q135 0 135 131v1270q0 49 -31 77.5t-153 28.5h-144q-82 0 -116.5 -26.5t-47.5 -92.5t-28 -229q-22 -239 -54.5 -415t-55.5 -258.5t-67.5 -229t-56.5 -215.5v-20q9 -21 25 -21z" />
    <glyph glyph-name="afii10070" unicode="&#xe5;" horiz-adv-x="2056" 
d="M1761 606l156 -94q-94 -160 -183 -269.5t-188 -179t-213.5 -101.5t-263.5 -32q-304 0 -515.5 146t-313 372t-101.5 457q0 287 125.5 525t340 372.5t468.5 134.5q195 0 351.5 -76.5t267.5 -212.5t168 -312t57 -369v-103h-1180q0 -278 71 -433t170.5 -209t209.5 -54
q187 0 316 110t257 328zM737 1057h525q46 0 55.5 32.5t9.5 143.5q0 183 -48.5 349.5t-205.5 166.5q-110 0 -223 -95t-113 -425v-172z" />
    <glyph glyph-name="afii10070" unicode="&#x435;" horiz-adv-x="2056" 
d="M1761 606l156 -94q-94 -160 -183 -269.5t-188 -179t-213.5 -101.5t-263.5 -32q-304 0 -515.5 146t-313 372t-101.5 457q0 287 125.5 525t340 372.5t468.5 134.5q195 0 351.5 -76.5t267.5 -212.5t168 -312t57 -369v-103h-1180q0 -278 71 -433t170.5 -209t209.5 -54
q187 0 316 110t257 328zM737 1057h525q46 0 55.5 32.5t9.5 143.5q0 183 -48.5 349.5t-205.5 166.5q-110 0 -223 -95t-113 -425v-172z" />
    <glyph glyph-name="afii10072" unicode="&#xe6;" horiz-adv-x="3387" 
d="M1184 1868h1011v-189h-90q-73 0 -108 -26.5t-35 -96.5v-487h82q102 0 160.5 50t85.5 212q41 235 118.5 368.5t180 183.5t229.5 50q149 0 250.5 -99t101.5 -261q0 -149 -76 -212t-165 -63t-155.5 58t-66.5 143q0 86 50 143q32 34 32 54q0 53 -61 53q-127 0 -205 -233
q-29 -91 -45 -189q-47 -266 -184 -307v-29q309 -29 407 -172t113 -327q30 -259 143 -259q57 0 97 97.5t43 197.5h151q-30 -321 -151 -459.5t-283 -138.5q-371 0 -451 590q-25 172 -52 245.5t-84.5 102.5t-178.5 29h-86v-586q0 -71 35 -97t108 -26h90v-188h-1011v188h86
q85 0 112 33t27 90v586h-82q-121 0 -179 -29.5t-85 -105t-51 -242.5q-30 -229 -123.5 -409.5t-327.5 -180.5q-162 0 -282 137.5t-152 460.5h152q3 -102 42.5 -198.5t96.5 -96.5q113 0 143 259q15 184 113.5 327t406.5 172v29q-137 41 -184 307q-16 98 -45 189
q-78 233 -205 233q-61 0 -61 -53q0 -20 32 -54q50 -57 50 -143q0 -85 -66.5 -143t-155.5 -58t-165 63t-76 212q0 162 102 261t250 99q128 0 229.5 -49.5t179.5 -183.5t119 -369q29 -163 87 -212.5t159 -49.5h78v487q0 58 -26.5 90.5t-112.5 32.5h-86v189z" />
    <glyph glyph-name="afii10072" unicode="&#x436;" horiz-adv-x="3387" 
d="M1184 1868h1011v-189h-90q-73 0 -108 -26.5t-35 -96.5v-487h82q102 0 160.5 50t85.5 212q41 235 118.5 368.5t180 183.5t229.5 50q149 0 250.5 -99t101.5 -261q0 -149 -76 -212t-165 -63t-155.5 58t-66.5 143q0 86 50 143q32 34 32 54q0 53 -61 53q-127 0 -205 -233
q-29 -91 -45 -189q-47 -266 -184 -307v-29q309 -29 407 -172t113 -327q30 -259 143 -259q57 0 97 97.5t43 197.5h151q-30 -321 -151 -459.5t-283 -138.5q-371 0 -451 590q-25 172 -52 245.5t-84.5 102.5t-178.5 29h-86v-586q0 -71 35 -97t108 -26h90v-188h-1011v188h86
q85 0 112 33t27 90v586h-82q-121 0 -179 -29.5t-85 -105t-51 -242.5q-30 -229 -123.5 -409.5t-327.5 -180.5q-162 0 -282 137.5t-152 460.5h152q3 -102 42.5 -198.5t96.5 -96.5q113 0 143 259q15 184 113.5 327t406.5 172v29q-137 41 -184 307q-16 98 -45 189
q-78 233 -205 233q-61 0 -61 -53q0 -20 32 -54q50 -57 50 -143q0 -85 -66.5 -143t-155.5 -58t-165 63t-76 212q0 162 102 261t250 99q128 0 229.5 -49.5t179.5 -183.5t119 -369q29 -163 87 -212.5t159 -49.5h78v487q0 58 -26.5 90.5t-112.5 32.5h-86v189z" />
    <glyph glyph-name="afii10073" unicode="&#xe7;" horiz-adv-x="1946" 
d="M242 1249l20 660h127l86 -140q224 168 569 168q229 0 387.5 -68t238 -178t79.5 -233q0 -116 -73 -214t-197.5 -157.5t-274.5 -70.5v-25q361 -42 494 -186t133 -301q0 -142 -88 -273t-279 -216t-485 -85q-281 0 -477 83.5t-291.5 210.5t-95.5 255q0 111 65 201t209 90
q129 0 181.5 -83t52.5 -175q0 -30 -21 -74q-18 -37 -61 -82q-45 -32 -45 -69q0 -52 88 -122.5t260 -70.5q182 0 285.5 96t103.5 338q0 210 -109.5 295.5t-271.5 85.5h-156v172h201q160 0 246 94t86 263q0 151 -89.5 231t-238.5 80q-221 0 -342.5 -150.5t-161.5 -349.5h-155z
" />
    <glyph glyph-name="afii10073" unicode="&#x437;" horiz-adv-x="1946" 
d="M242 1249l20 660h127l86 -140q224 168 569 168q229 0 387.5 -68t238 -178t79.5 -233q0 -116 -73 -214t-197.5 -157.5t-274.5 -70.5v-25q361 -42 494 -186t133 -301q0 -142 -88 -273t-279 -216t-485 -85q-281 0 -477 83.5t-291.5 210.5t-95.5 255q0 111 65 201t209 90
q129 0 181.5 -83t52.5 -175q0 -30 -21 -74q-18 -37 -61 -82q-45 -32 -45 -69q0 -52 88 -122.5t260 -70.5q182 0 285.5 96t103.5 338q0 210 -109.5 295.5t-271.5 85.5h-156v172h201q160 0 246 94t86 263q0 151 -89.5 231t-238.5 80q-221 0 -342.5 -150.5t-161.5 -349.5h-155z
" />
    <glyph glyph-name="afii10074" unicode="&#xe8;" horiz-adv-x="2540" 
d="M127 1868h1020v-189h-41q-139 0 -139 -123v-933h12l582 958v12q0 86 -140 86h-41v189h1020v-189h-147q-139 0 -139 -123v-1245q0 -123 139 -123h147v-188h-1020v188h41q140 0 140 123v910h-9l-585 -897v-13q0 -123 139 -123h41v-188h-1020v188h147q140 0 140 123v1245
q0 123 -140 123h-147v189z" />
    <glyph glyph-name="afii10074" unicode="&#x438;" horiz-adv-x="2540" 
d="M127 1868h1020v-189h-41q-139 0 -139 -123v-933h12l582 958v12q0 86 -140 86h-41v189h1020v-189h-147q-139 0 -139 -123v-1245q0 -123 139 -123h147v-188h-1020v188h41q140 0 140 123v910h-9l-585 -897v-13q0 -123 139 -123h41v-188h-1020v188h147q140 0 140 123v1245
q0 123 -140 123h-147v189z" />
    <glyph glyph-name="afii10075" unicode="&#xe9;" horiz-adv-x="2540" 
d="M127 1868h1020v-189h-41q-139 0 -139 -123v-933h12l582 958v12q0 86 -140 86h-41v189h1020v-189h-147q-139 0 -139 -123v-1245q0 -123 139 -123h147v-188h-1020v188h41q140 0 140 123v910h-9l-585 -897v-13q0 -123 139 -123h41v-188h-1020v188h147q140 0 140 123v1245
q0 123 -140 123h-147v189zM1262 2167q-250 0 -442.5 111.5t-192.5 301.5q0 115 62.5 180.5t178.5 65.5q98 0 151.5 -58.5t53.5 -141.5q0 -59 -33 -111q-7 -12 -25 -33.5t-29 -39t-11 -34.5q0 -35 60 -72.5t227 -37.5q286 0 286 110q0 21 -9.5 37.5t-24 33t-31.5 36.5
q-29 40 -29 111q0 121 107 180q60 20 110 20q101 0 163 -66t62 -180q0 -136 -96 -229.5t-244 -138.5t-294 -45z" />
    <glyph glyph-name="afii10075" unicode="&#x439;" horiz-adv-x="2540" 
d="M127 1868h1020v-189h-41q-139 0 -139 -123v-933h12l582 958v12q0 86 -140 86h-41v189h1020v-189h-147q-139 0 -139 -123v-1245q0 -123 139 -123h147v-188h-1020v188h41q140 0 140 123v910h-9l-585 -897v-13q0 -123 139 -123h41v-188h-1020v188h147q140 0 140 123v1245
q0 123 -140 123h-147v189zM1262 2167q-250 0 -442.5 111.5t-192.5 301.5q0 115 62.5 180.5t178.5 65.5q98 0 151.5 -58.5t53.5 -141.5q0 -59 -33 -111q-7 -12 -25 -33.5t-29 -39t-11 -34.5q0 -35 60 -72.5t227 -37.5q286 0 286 110q0 21 -9.5 37.5t-24 33t-31.5 36.5
q-29 40 -29 111q0 121 107 180q60 20 110 20q101 0 163 -66t62 -180q0 -136 -96 -229.5t-244 -138.5t-294 -45z" />
    <glyph glyph-name="afii10076" unicode="&#xea;" horiz-adv-x="2400" 
d="M102 1868h1012v-189h-90q-139 0 -139 -123v-487h225q88 0 152.5 47t93.5 215q47 256 150.5 431t373.5 175q152 0 254 -99.5t102 -264.5q0 -95 -56.5 -185t-188.5 -90q-94 0 -155.5 61.5t-61.5 139.5q0 87 45 143q32 45 32 54q0 53 -57 53q-106 0 -166.5 -134t-87.5 -288
q-26 -130 -66 -205t-118 -102v-29q305 -23 405.5 -170.5t122.5 -328.5q14 -259 139 -259q104 0 140 295h147q-1 -175 -61.5 -312.5t-158.5 -211.5t-210 -74q-251 0 -333.5 182.5t-129.5 485.5q-26 184 -88 241.5t-215 57.5h-229v-586q0 -123 139 -123h90v-188h-1012v188h91
q139 0 139 123v1245q0 123 -139 123h-91v189z" />
    <glyph glyph-name="afii10076" unicode="&#x43a;" horiz-adv-x="2400" 
d="M102 1868h1012v-189h-90q-139 0 -139 -123v-487h225q88 0 152.5 47t93.5 215q47 256 150.5 431t373.5 175q152 0 254 -99.5t102 -264.5q0 -95 -56.5 -185t-188.5 -90q-94 0 -155.5 61.5t-61.5 139.5q0 87 45 143q32 45 32 54q0 53 -57 53q-106 0 -166.5 -134t-87.5 -288
q-26 -130 -66 -205t-118 -102v-29q305 -23 405.5 -170.5t122.5 -328.5q14 -259 139 -259q104 0 140 295h147q-1 -175 -61.5 -312.5t-158.5 -211.5t-210 -74q-251 0 -333.5 182.5t-129.5 485.5q-26 184 -88 241.5t-215 57.5h-229v-586q0 -123 139 -123h90v-188h-1012v188h91
q139 0 139 123v1245q0 123 -139 123h-91v189z" />
    <glyph glyph-name="afii10077" unicode="&#xeb;" horiz-adv-x="2466" 
d="M479 1868h1872v-189h-147q-140 0 -140 -123v-1245q0 -123 140 -123h147v-188h-1126v188h147q139 0 139 123v1135q0 156 -42 199t-166 43q-103 0 -153.5 -32t-75 -132.5t-30.5 -311.5q-24 -626 -73 -835q-103 -447 -434 -447q-158 0 -258.5 57.5t-144.5 144t-44 175.5
q0 143 81 233.5t202 90.5q92 0 166.5 -60t74.5 -174q0 -28 -16 -78q-14 -38 -37 -61q-24 -48 -24 -70q0 -24 53 -24q135 0 192 233q43 175 58.5 466.5t15.5 475.5q0 165 -43 252.5t-195 87.5h-139v189z" />
    <glyph glyph-name="afii10077" unicode="&#x43b;" horiz-adv-x="2466" 
d="M479 1868h1872v-189h-147q-140 0 -140 -123v-1245q0 -123 140 -123h147v-188h-1126v188h147q139 0 139 123v1135q0 156 -42 199t-166 43q-103 0 -153.5 -32t-75 -132.5t-30.5 -311.5q-24 -626 -73 -835q-103 -447 -434 -447q-158 0 -258.5 57.5t-144.5 144t-44 175.5
q0 143 81 233.5t202 90.5q92 0 166.5 -60t74.5 -174q0 -28 -16 -78q-14 -38 -37 -61q-24 -48 -24 -70q0 -24 53 -24q135 0 192 233q43 175 58.5 466.5t15.5 475.5q0 165 -43 252.5t-195 87.5h-139v189z" />
    <glyph glyph-name="afii10078" unicode="&#xec;" horiz-adv-x="2978" 
d="M2023 1679h-24l-610 -1679h-148l-614 1679h-29v-1368q0 -123 139 -123h119v-188h-741v188h147q139 0 139 123v1245q0 123 -139 123h-147v189h962l393 -1053l17 4l373 1049h1003v-189h-147q-140 0 -140 -123v-1245q0 -123 140 -123h147v-188h-1126v188h147q139 0 139 123
v1368z" />
    <glyph glyph-name="afii10078" unicode="&#x43c;" horiz-adv-x="2978" 
d="M2023 1679h-24l-610 -1679h-148l-614 1679h-29v-1368q0 -123 139 -123h119v-188h-741v188h147q139 0 139 123v1245q0 123 -139 123h-147v189h962l393 -1053l17 4l373 1049h1003v-189h-147q-140 0 -140 -123v-1245q0 -123 140 -123h147v-188h-1126v188h147q139 0 139 123
v1368z" />
    <glyph glyph-name="afii10079" unicode="&#xed;" horiz-adv-x="2494" 
d="M115 1868h1065v-189h-86q-140 0 -140 -123v-475h586v475q0 123 -139 123h-90v189h1069v-189h-148q-139 0 -139 -123v-1245q0 -123 139 -123h148v-188h-1069v188h90q139 0 139 123v582h-586v-582q0 -123 140 -123h86v-188h-1065v188h147q139 0 139 123v1245
q0 123 -139 123h-147v189z" />
    <glyph glyph-name="afii10079" unicode="&#x43d;" horiz-adv-x="2494" 
d="M115 1868h1065v-189h-86q-140 0 -140 -123v-475h586v475q0 123 -139 123h-90v189h1069v-189h-148q-139 0 -139 -123v-1245q0 -123 139 -123h148v-188h-1069v188h90q139 0 139 123v582h-586v-582q0 -123 140 -123h86v-188h-1065v188h147q139 0 139 123v1245
q0 123 -139 123h-147v189z" />
    <glyph glyph-name="afii10080" unicode="&#xee;" horiz-adv-x="2220" 
d="M139 934q0 279 132 509.5t355 362t484 131.5q175 0 348.5 -66t314.5 -195t224.5 -318.5t83.5 -423.5q0 -309 -142.5 -538t-366.5 -347.5t-462 -118.5q-195 0 -371.5 75.5t-312.5 213t-211.5 322t-75.5 393.5zM737 934q0 -242 26.5 -417.5t109 -284.5t237.5 -109
q236 0 304.5 231.5t68.5 579.5q0 355 -72 583t-301 228q-154 0 -237 -111t-109.5 -287.5t-26.5 -412.5z" />
    <glyph glyph-name="afii10080" unicode="&#x43e;" horiz-adv-x="2220" 
d="M139 934q0 279 132 509.5t355 362t484 131.5q175 0 348.5 -66t314.5 -195t224.5 -318.5t83.5 -423.5q0 -309 -142.5 -538t-366.5 -347.5t-462 -118.5q-195 0 -371.5 75.5t-312.5 213t-211.5 322t-75.5 393.5zM737 934q0 -242 26.5 -417.5t109 -284.5t237.5 -109
q236 0 304.5 231.5t68.5 579.5q0 355 -72 583t-301 228q-154 0 -237 -111t-109.5 -287.5t-26.5 -412.5z" />
    <glyph glyph-name="afii10081" unicode="&#xef;" horiz-adv-x="2527" 
d="M115 1868h2298v-189h-148q-139 0 -139 -123v-1245q0 -123 139 -123h148v-188h-1041v188h62q139 0 139 123v1245q0 123 -139 123h-340q-140 0 -140 -123v-1245q0 -123 140 -123h61v-188h-1040v188h147q139 0 139 123v1245q0 123 -139 123h-147v189z" />
    <glyph glyph-name="afii10081" unicode="&#x43f;" horiz-adv-x="2527" 
d="M115 1868h2298v-189h-148q-139 0 -139 -123v-1245q0 -123 139 -123h148v-188h-1041v188h62q139 0 139 123v1245q0 123 -139 123h-340q-140 0 -140 -123v-1245q0 -123 140 -123h61v-188h-1040v188h147q139 0 139 123v1245q0 123 -139 123h-147v189z" />
    <glyph glyph-name="afii10082" unicode="&#xf0;" horiz-adv-x="2400" 
d="M115 1868q81 5 125.5 7.5t87.5 4.5q152 4 438 37q40 5 71 8.5t93 11.5v-258h24q166 258 521 258q94 0 216 -32t254 -136.5t224 -318t92 -553.5q0 -236 -60.5 -416.5t-168.5 -303.5t-249.5 -185t-299.5 -62q-162 0 -307 69t-222 189h-24l24 -249v-402q0 -123 140 -123h147
v-188h-1126v188h147q139 0 139 123v2007q0 135 -118 135h-168v189zM1311 1675q-208 0 -288.5 -222.5t-80.5 -526.5q0 -754 369 -754q209 0 280.5 213t71.5 541q0 330 -71 539.5t-281 209.5z" />
    <glyph glyph-name="afii10082" unicode="&#x440;" horiz-adv-x="2400" 
d="M115 1868q81 5 125.5 7.5t87.5 4.5q152 4 438 37q40 5 71 8.5t93 11.5v-258h24q166 258 521 258q94 0 216 -32t254 -136.5t224 -318t92 -553.5q0 -236 -60.5 -416.5t-168.5 -303.5t-249.5 -185t-299.5 -62q-162 0 -307 69t-222 189h-24l24 -249v-402q0 -123 140 -123h147
v-188h-1126v188h147q139 0 139 123v2007q0 135 -118 135h-168v189zM1311 1675q-208 0 -288.5 -222.5t-80.5 -526.5q0 -754 369 -754q209 0 280.5 213t71.5 541q0 330 -71 539.5t-281 209.5z" />
    <glyph glyph-name="afii10083" unicode="&#xf1;" horiz-adv-x="1987" 
d="M1741 643l155 -57q-221 -656 -786 -656q-296 0 -517 134t-337.5 366.5t-116.5 515.5q0 296 131.5 522t355 347.5t484.5 121.5q205 0 361.5 -75t241.5 -198.5t85 -266.5q0 -113 -72.5 -206t-222.5 -93q-116 0 -195 69t-79 168q0 165 131 250q5 4 27 18t30 27.5t8 32.5
q0 45 -66 84t-179 39q-443 0 -443 -840q0 -799 480 -799q346 0 524 496z" />
    <glyph glyph-name="afii10083" unicode="&#x441;" horiz-adv-x="1987" 
d="M1741 643l155 -57q-221 -656 -786 -656q-296 0 -517 134t-337.5 366.5t-116.5 515.5q0 296 131.5 522t355 347.5t484.5 121.5q205 0 361.5 -75t241.5 -198.5t85 -266.5q0 -113 -72.5 -206t-222.5 -93q-116 0 -195 69t-79 168q0 165 131 250q5 4 27 18t30 27.5t8 32.5
q0 45 -66 84t-179 39q-443 0 -443 -840q0 -799 480 -799q346 0 524 496z" />
    <glyph glyph-name="afii10084" unicode="&#xf2;" horiz-adv-x="2060" 
d="M115 1868h1831v-742h-164q-1 133 -67 262t-164 211.5t-187 83.5h-21q-25 0 -30.5 -6t-5.5 -39v-1327q0 -123 139 -123h147v-188h-1126v188h147q140 0 140 123v1327q0 45 -33 45h-25q-88 -6 -186 -87t-164 -209t-67 -261h-164v742z" />
    <glyph glyph-name="afii10084" unicode="&#x442;" horiz-adv-x="2060" 
d="M115 1868h1831v-742h-164q-1 133 -67 262t-164 211.5t-187 83.5h-21q-25 0 -30.5 -6t-5.5 -39v-1327q0 -123 139 -123h147v-188h-1126v188h147q140 0 140 123v1327q0 45 -33 45h-25q-88 -6 -186 -87t-164 -209t-67 -261h-164v742z" />
    <glyph glyph-name="afii10085" unicode="&#xf3;" horiz-adv-x="2171" 
d="M57 1868h1016v-189h-98q-43 0 -75 -22.5t-32 -63.5q0 -35 21 -86l397 -884h21l331 823q21 53 21 119t-41 90t-86 24h-119v189h733v-189q-127 -5 -177.5 -61t-100.5 -168l-758 -1831q-51 -126 -102 -210.5t-154 -148t-268 -63.5q-199 0 -306.5 108t-107.5 240
q0 144 46 242t192 98q135 0 194.5 -77.5t59.5 -172.5q0 -42 -25 -94q-33 -64 -33 -86q0 -57 82 -57q70 0 112 62.5t81 158.5l163 389l-741 1499q-81 172 -221 172h-25v189z" />
    <glyph glyph-name="afii10085" unicode="&#x443;" horiz-adv-x="2171" 
d="M57 1868h1016v-189h-98q-43 0 -75 -22.5t-32 -63.5q0 -35 21 -86l397 -884h21l331 823q21 53 21 119t-41 90t-86 24h-119v189h733v-189q-127 -5 -177.5 -61t-100.5 -168l-758 -1831q-51 -126 -102 -210.5t-154 -148t-268 -63.5q-199 0 -306.5 108t-107.5 240
q0 144 46 242t192 98q135 0 194.5 -77.5t59.5 -172.5q0 -42 -25 -94q-33 -64 -33 -86q0 -57 82 -57q70 0 112 62.5t81 158.5l163 389l-741 1499q-81 172 -221 172h-25v189z" />
    <glyph glyph-name="afii10086" unicode="&#xf4;" horiz-adv-x="3158" 
d="M1020 2474v192q353 0 835 41v-1028h9q82 119 210 188.5t257 69.5q151 0 311 -114.5t268.5 -339t108.5 -529.5q0 -373 -112.5 -603.5t-271.5 -325.5t-308 -95q-236 0 -459 217h-13v-593q0 -156 103 -156h184v-189h-1122v189h180q103 0 103 156v593h-13
q-118 -115 -220 -166t-239 -51q-138 0 -298.5 95.5t-277 325.5t-116.5 603q0 308 106.5 531.5t266.5 337.5t319 114q152 0 273.5 -82.5t193.5 -175.5h5v607q0 112 -27 150t-117 38h-139zM1303 745v328q0 37 -5 62q0 45 -4 94q0 154 -49.5 308.5t-220.5 154.5
q-250 0 -274 -537q0 -37 -2.5 -65t-2.5 -41q-8 -58 -8 -95q0 -12 8 -282q25 -496 279 -496q279 0 279 569zM1855 1073v-225q0 -316 55.5 -494t227.5 -178q124 0 186 108.5t79.5 272t17.5 397.5q0 320 -55 529t-232 209q-270 0 -270 -463q-4 -49 -4 -94q-5 -25 -5 -62z" />
    <glyph glyph-name="afii10086" unicode="&#x444;" horiz-adv-x="3158" 
d="M1020 2474v192q353 0 835 41v-1028h9q82 119 210 188.5t257 69.5q151 0 311 -114.5t268.5 -339t108.5 -529.5q0 -373 -112.5 -603.5t-271.5 -325.5t-308 -95q-236 0 -459 217h-13v-593q0 -156 103 -156h184v-189h-1122v189h180q103 0 103 156v593h-13
q-118 -115 -220 -166t-239 -51q-138 0 -298.5 95.5t-277 325.5t-116.5 603q0 308 106.5 531.5t266.5 337.5t319 114q152 0 273.5 -82.5t193.5 -175.5h5v607q0 112 -27 150t-117 38h-139zM1303 745v328q0 37 -5 62q0 45 -4 94q0 154 -49.5 308.5t-220.5 154.5
q-250 0 -274 -537q0 -37 -2.5 -65t-2.5 -41q-8 -58 -8 -95q0 -12 8 -282q25 -496 279 -496q279 0 279 569zM1855 1073v-225q0 -316 55.5 -494t227.5 -178q124 0 186 108.5t79.5 272t17.5 397.5q0 320 -55 529t-232 209q-270 0 -270 -463q-4 -49 -4 -94q-5 -25 -5 -62z" />
    <glyph glyph-name="afii10087" unicode="&#xf5;" horiz-adv-x="2408" 
d="M152 1679v189h1048v-189h-94q-74 0 -74 -73q0 -39 41 -103l221 -323h25l209 274q57 75 57 131q0 42 -27.5 68t-66.5 26h-61v189h765v-189h-53q-77 0 -172 -55.5t-151 -124.5l-357 -438l520 -655q148 -190 336 -218v-188h-1114v188h131q70 0 70 66q0 37 -53 115l-271 397
h-24l-316 -385q-6 -6 -32 -49q-25 -25 -25 -62q0 -82 90 -82h139v-188h-774v188q194 0 353 193l409 504l-491 614q-71 85 -121 127t-137 53z" />
    <glyph glyph-name="afii10087" unicode="&#x445;" horiz-adv-x="2408" 
d="M152 1679v189h1048v-189h-94q-74 0 -74 -73q0 -39 41 -103l221 -323h25l209 274q57 75 57 131q0 42 -27.5 68t-66.5 26h-61v189h765v-189h-53q-77 0 -172 -55.5t-151 -124.5l-357 -438l520 -655q148 -190 336 -218v-188h-1114v188h131q70 0 70 66q0 37 -53 115l-271 397
h-24l-316 -385q-6 -6 -32 -49q-25 -25 -25 -62q0 -82 90 -82h139v-188h-774v188q194 0 353 193l409 504l-491 614q-71 85 -121 127t-137 53z" />
    <glyph glyph-name="afii10088" unicode="&#xf6;" horiz-adv-x="2572" 
d="M115 1868h1036v-189h-57q-140 0 -140 -123v-1245q0 -123 140 -123h336q139 0 139 123v1245q0 123 -139 123h-58v189h1036v-189h-147q-139 0 -139 -123v-1245q0 -123 139 -123h209v-806h-197q-20 273 -100.5 406t-221 172.5t-390.5 39.5h-1446v188h147q139 0 139 123v1245
q0 123 -139 123h-147v189z" />
    <glyph glyph-name="afii10088" unicode="&#x446;" horiz-adv-x="2572" 
d="M115 1868h1036v-189h-57q-140 0 -140 -123v-1245q0 -123 140 -123h336q139 0 139 123v1245q0 123 -139 123h-58v189h1036v-189h-147q-139 0 -139 -123v-1245q0 -123 139 -123h209v-806h-197q-20 273 -100.5 406t-221 172.5t-390.5 39.5h-1446v188h147q139 0 139 123v1245
q0 123 -139 123h-147v189z" />
    <glyph glyph-name="afii10089" unicode="&#xf7;" horiz-adv-x="2367" 
d="M29 1868h1028v-189h-49q-140 0 -140 -123v-401q0 -11 2 -35t2 -47q25 -221 246 -221q144 0 295 66v638q0 123 -139 123h-57v189h1036v-189h-148q-139 0 -139 -123v-1245q0 -123 139 -123h148v-188h-1123v188h144q77 0 108 25.5t31 97.5v422q-291 -106 -487 -106
q-611 0 -611 475v454q0 123 -139 123h-147v189z" />
    <glyph glyph-name="afii10089" unicode="&#x447;" horiz-adv-x="2367" 
d="M29 1868h1028v-189h-49q-140 0 -140 -123v-401q0 -11 2 -35t2 -47q25 -221 246 -221q144 0 295 66v638q0 123 -139 123h-57v189h1036v-189h-148q-139 0 -139 -123v-1245q0 -123 139 -123h148v-188h-1123v188h144q77 0 108 25.5t31 97.5v422q-291 -106 -487 -106
q-611 0 -611 475v454q0 123 -139 123h-147v189z" />
    <glyph glyph-name="afii10090" unicode="&#xf8;" horiz-adv-x="3580" 
d="M115 1868h1036v-189h-57q-140 0 -140 -123v-1245q0 -123 140 -123h278q139 0 139 123v1245q0 123 -139 123h-61v189h950v-189h-57q-140 0 -140 -123v-1245q0 -123 140 -123h278q139 0 139 123v1245q0 123 -139 123h-57v189h1040v-189h-151q-140 0 -140 -123v-1245
q0 -123 140 -123h151v-188h-3350v188h147q139 0 139 123v1245q0 123 -139 123h-147v189z" />
    <glyph glyph-name="afii10090" unicode="&#x448;" horiz-adv-x="3580" 
d="M115 1868h1036v-189h-57q-140 0 -140 -123v-1245q0 -123 140 -123h278q139 0 139 123v1245q0 123 -139 123h-61v189h950v-189h-57q-140 0 -140 -123v-1245q0 -123 140 -123h278q139 0 139 123v1245q0 123 -139 123h-57v189h1040v-189h-151q-140 0 -140 -123v-1245
q0 -123 140 -123h151v-188h-3350v188h147q139 0 139 123v1245q0 123 -139 123h-147v189z" />
    <glyph glyph-name="afii10091" unicode="&#xf9;" horiz-adv-x="3580" 
d="M115 1868h1036v-189h-57q-140 0 -140 -123v-1245q0 -123 140 -123h278q139 0 139 123v1245q0 123 -139 123h-61v189h950v-189h-57q-140 0 -140 -123v-1245q0 -123 140 -123h278q139 0 139 123v1245q0 123 -139 123h-57v189h1040v-189h-151q-140 0 -140 -123v-1245
q0 -123 140 -123h200v-815h-192q-35 245 -92.5 377.5t-175.5 191t-330 58.5h-2609v188h147q139 0 139 123v1245q0 123 -139 123h-147v189z" />
    <glyph glyph-name="afii10091" unicode="&#x449;" horiz-adv-x="3580" 
d="M115 1868h1036v-189h-57q-140 0 -140 -123v-1245q0 -123 140 -123h278q139 0 139 123v1245q0 123 -139 123h-61v189h950v-189h-57q-140 0 -140 -123v-1245q0 -123 140 -123h278q139 0 139 123v1245q0 123 -139 123h-57v189h1040v-189h-151q-140 0 -140 -123v-1245
q0 -123 140 -123h200v-815h-192q-35 245 -92.5 377.5t-175.5 191t-330 58.5h-2609v188h147q139 0 139 123v1245q0 123 -139 123h-147v189z" />
    <glyph glyph-name="afii10092" unicode="&#xfa;" horiz-adv-x="2642" 
d="M127 1114v754h1626v-189h-147q-140 0 -140 -123v-471h381q133 0 293 -42t286 -164t126 -342q0 -214 -174.5 -375.5t-599.5 -161.5h-1151v188h147q139 0 139 123v1217q0 131 -151 131q-101 0 -172.5 -38t-147.5 -114q-135 -126 -163 -393h-152zM1466 893v-631
q0 -90 144 -90h69q93 0 168 66q107 85 107 303q0 176 -87 264t-196 88h-205z" />
    <glyph glyph-name="afii10092" unicode="&#x44a;" horiz-adv-x="2642" 
d="M127 1114v754h1626v-189h-147q-140 0 -140 -123v-471h381q133 0 293 -42t286 -164t126 -342q0 -214 -174.5 -375.5t-599.5 -161.5h-1151v188h147q139 0 139 123v1217q0 131 -151 131q-101 0 -172.5 -38t-147.5 -114q-135 -126 -163 -393h-152zM1466 893v-631
q0 -90 144 -90h69q93 0 168 66q107 85 107 303q0 176 -87 264t-196 88h-205z" />
    <glyph glyph-name="afii10093" unicode="&#xfb;" horiz-adv-x="3301" 
d="M115 1868h1126v-189h-147q-140 0 -140 -123v-471h385q86 0 198 -20.5t229 -78.5t195.5 -168.5t78.5 -280.5q0 -103 -54.5 -224t-228 -217t-491.5 -96h-1151v188h147q139 0 139 123v1245q0 123 -139 123h-147v189zM954 893v-614q0 -91 127 -91h74q100 0 180 66
q107 89 107 303q0 137 -52.5 211.5t-116.5 99.5t-110 25h-209zM2060 1868h1127v-189h-148q-139 0 -139 -123v-1245q0 -123 139 -123h148v-188h-1127v188h148q139 0 139 123v1245q0 123 -139 123h-148v189z" />
    <glyph glyph-name="afii10093" unicode="&#x44b;" horiz-adv-x="3301" 
d="M115 1868h1126v-189h-147q-140 0 -140 -123v-471h385q86 0 198 -20.5t229 -78.5t195.5 -168.5t78.5 -280.5q0 -103 -54.5 -224t-228 -217t-491.5 -96h-1151v188h147q139 0 139 123v1245q0 123 -139 123h-147v189zM954 893v-614q0 -91 127 -91h74q100 0 180 66
q107 89 107 303q0 137 -52.5 211.5t-116.5 99.5t-110 25h-209zM2060 1868h1127v-189h-148q-139 0 -139 -123v-1245q0 -123 139 -123h148v-188h-1127v188h148q139 0 139 123v1245q0 123 -139 123h-148v189z" />
    <glyph glyph-name="afii10094" unicode="&#xfc;" horiz-adv-x="2130" 
d="M115 1868h1126v-189h-147q-140 0 -140 -123v-471h385q86 0 198 -20.5t229 -78.5t195.5 -168.5t78.5 -280.5q0 -103 -54.5 -224t-228 -217t-491.5 -96h-1151v188h147q139 0 139 123v1245q0 123 -139 123h-147v189zM954 893v-614q0 -91 127 -91h74q100 0 180 66
q107 89 107 303q0 137 -52.5 211.5t-116.5 99.5t-110 25h-209z" />
    <glyph glyph-name="afii10094" unicode="&#x44c;" horiz-adv-x="2130" 
d="M115 1868h1126v-189h-147q-140 0 -140 -123v-471h385q86 0 198 -20.5t229 -78.5t195.5 -168.5t78.5 -280.5q0 -103 -54.5 -224t-228 -217t-491.5 -96h-1151v188h147q139 0 139 123v1245q0 123 -139 123h-147v189zM954 893v-614q0 -91 127 -91h74q100 0 180 66
q107 89 107 303q0 137 -52.5 211.5t-116.5 99.5t-110 25h-209z" />
    <glyph glyph-name="afii10095" unicode="&#xfd;" horiz-adv-x="1954" 
d="M336 1217h-148v651h131l66 -127h4q28 16 49 33q230 163 512 163q195 0 356 -76t274 -206t174 -295.5t61 -335.5q0 -325 -124 -573.5t-349.5 -384.5t-514.5 -136q-218 0 -380 79t-247 203t-85 255q0 126 76 190t165 64q88 0 157 -62t69 -163q0 -37 -4 -54q-7 -45 -62 -131
q-33 -41 -33 -61q0 -61 86 -110.5t205 -49.5q256 0 365 258q41 97 55 196.5t23 323.5h-586v193h586v201q0 153 -71 320t-286 167q-163 0 -320 -127t-204 -405z" />
    <glyph glyph-name="afii10095" unicode="&#x44d;" horiz-adv-x="1954" 
d="M336 1217h-148v651h131l66 -127h4q28 16 49 33q230 163 512 163q195 0 356 -76t274 -206t174 -295.5t61 -335.5q0 -325 -124 -573.5t-349.5 -384.5t-514.5 -136q-218 0 -380 79t-247 203t-85 255q0 126 76 190t165 64q88 0 157 -62t69 -163q0 -37 -4 -54q-7 -45 -62 -131
q-33 -41 -33 -61q0 -61 86 -110.5t205 -49.5q256 0 365 258q41 97 55 196.5t23 323.5h-586v193h586v201q0 153 -71 320t-286 167q-163 0 -320 -127t-204 -405z" />
    <glyph glyph-name="afii10096" unicode="&#xfe;" horiz-adv-x="3375" 
d="M90 1868h1069v-189h-90q-139 0 -139 -123v-475h413q27 250 169.5 446.5t353.5 303t436 106.5q196 0 373.5 -75t312.5 -212t210 -320t75 -396q0 -281 -131 -511.5t-353.5 -361.5t-486.5 -131q-235 0 -457.5 119t-363.5 339t-150 505h-401v-582q0 -123 139 -123h90v-188
h-1069v188h148q139 0 139 123v1245q0 123 -139 123h-148v189zM1929 934q0 -253 26 -425.5t107.5 -279t239.5 -106.5q237 0 305 216.5t68 594.5q0 236 -26.5 412.5t-109.5 287.5t-237 111t-237 -111t-109.5 -287.5t-26.5 -412.5z" />
    <glyph glyph-name="afii10096" unicode="&#x44e;" horiz-adv-x="3375" 
d="M90 1868h1069v-189h-90q-139 0 -139 -123v-475h413q27 250 169.5 446.5t353.5 303t436 106.5q196 0 373.5 -75t312.5 -212t210 -320t75 -396q0 -281 -131 -511.5t-353.5 -361.5t-486.5 -131q-235 0 -457.5 119t-363.5 339t-150 505h-401v-582q0 -123 139 -123h90v-188
h-1069v188h148q139 0 139 123v1245q0 123 -139 123h-148v189zM1929 934q0 -253 26 -425.5t107.5 -279t239.5 -106.5q237 0 305 216.5t68 594.5q0 236 -26.5 412.5t-109.5 287.5t-237 111t-237 -111t-109.5 -287.5t-26.5 -412.5z" />
    <glyph glyph-name="afii10097" unicode="&#xff;" horiz-adv-x="2454" 
d="M139 475h135q26 -270 148 -270q51 0 69 49t37 143q32 179 114.5 305.5t328.5 174.5v24q-265 0 -447 123q-118 80 -153 173t-35 208q0 463 778 463h1225v-189h-148q-139 0 -139 -123v-1245q0 -123 139 -123h148v-188h-1127v188h148q139 0 139 123v508h-262
q-137 0 -186 -107.5t-68 -269.5q-83 -512 -426 -512q-130 0 -265.5 109.5t-152.5 435.5zM1499 971v594q0 131 -106 131h-86q-360 0 -377 -353v-53q13 -167 111.5 -243t195.5 -76h262z" />
    <glyph glyph-name="afii10097" unicode="&#x44f;" horiz-adv-x="2454" 
d="M139 475h135q26 -270 148 -270q51 0 69 49t37 143q32 179 114.5 305.5t328.5 174.5v24q-265 0 -447 123q-118 80 -153 173t-35 208q0 463 778 463h1225v-189h-148q-139 0 -139 -123v-1245q0 -123 139 -123h148v-188h-1127v188h148q139 0 139 123v508h-262
q-137 0 -186 -107.5t-68 -269.5q-83 -512 -426 -512q-130 0 -265.5 109.5t-152.5 435.5zM1499 971v594q0 131 -106 131h-86q-360 0 -377 -353v-53q13 -167 111.5 -243t195.5 -76h262z" />
    <glyph glyph-name="nonbreakingspace" unicode="&#xa0;" horiz-adv-x="1196" 
 />
  </font>
</defs>
</svg>
